<svg xmlns="http://www.w3.org/2000/svg" viewBox="0 0 636.17 648.07"><defs><style>.cls-1{isolation:isolate;}.cls-2{mix-blend-mode:multiply;}.cls-3{opacity:0.9;}.cls-4{fill:#a2d9da;}.cls-5{fill:#c5e7e7;}.cls-6{fill:#15b2b8;}.cls-7{fill:#00a5ad;}.cls-8{fill:#7ccbce;}.cls-9{fill:#58bfc3;}.cls-10{fill:#0098a2;}</style></defs><title>CS</title><g class="cls-1"><g id="Layer_2" data-name="Layer 2"><g id="Content"><g class="cls-2"><g class="cls-3"><g class="cls-3"><path class="cls-4" d="M521.44,382.53c-1.62-1.39-5.06-.16-5.44-2.93l9.36-6.74C527.34,375.2,527.75,380.09,521.44,382.53Z"/><path class="cls-4" d="M498.53,463.25c-5.51,2.91-10.69,5.76-16.23,8.55l-11,3.61-2.84,1.15c-5.15,1.61-10.25,3.4-15.37,4.82-3.46,1.28-7.2,2.6-10.63,3.78l-1.82-.38c-3.32,1.58-6.61,3-10,4.36a23.41,23.41,0,0,1-3.54-.65c-1.65,1.34-3.55,3-5.15,4.48l-10.41,3.31.25.93-1.54.53-2.2.68-4.43,1.32c-2.94.85-5.52,1.34-8.3,2-5.32,1.09-10.47,2-15.45,2.58-16.68,1.12-32.23.37-47.95-.94l.37-2.84-10-1-.47,2.83c-8.77-.77-18-1.85-27.28-3.51L289,497.61l-5.41-1.53c-9.25-6.6-8.32-2.55-11.38-4-3.47-2.42-6.81-5-10.33-7.74-1.35-.61-3-1.49-4.62-2.35-3-2.17-5.55-4.3-8.37-6.64A139,139,0,0,1,226,458.93a214.9,214.9,0,0,1-18.47-18.54,99.47,99.47,0,0,1-15.21-18.27c-4.76-7.34-7.49-15.53-6.48-20.27-5.24-5.52-7-12.61-9.52-18.81,2.85-.55-.24-5.16-.12-8.33l-2-6c-1-3.21-1.94-6.06-2.84-9.3-.86-2.91-1.73-6.16-2.57-9.44a233,233,0,0,1-5.87-32.13v-11.3l-1.21-11.72c-.25-3.85-.36-7.46-.45-11.2-.47-4.07-.9-7.84-1.09-11.56l.16-1.67L161,256l1.43-15.91c.89-3.19,1.87-6,2.64-9.22-2.6-4.71-.29-11.33,1.61-15.95,1.58-8.81,3.53-17.58,5.9-26.28L172,178.14a16.28,16.28,0,0,1,3.93-.3c2.35-8.41,5.14-16.39,8.34-24.78l-5-2.47c1.25-6.82-.5-9.87-.61-12,1.5-3.72,3.1-7.32,4.74-10.94,7.37-10.54,12.44-15.42,12.28-20.38a227.25,227.25,0,0,1,12.6-20.8c8.9-7.8,13.5-13.22,11.36-14.91,1.65-1.89,3.22-3.44,5-5.29q3-3.18,6.18-6.22c2.11-2,4.19-4.09,6.46-6,9.23-5.47,9.22-8.89,9.89-10.56,3.92-3,8-6,11.93-8.57a165.7,165.7,0,0,1,16.57-9.6c5-2,6.84-3.22,8.24-4.36a17.21,17.21,0,0,1,5.45-3.69,108.18,108.18,0,0,1,11.56-1.88c1.14-.37,2.33-.65,3.5-1,2.81-4.56,10.79-5.18,15.4-5.18l3.73-.54C325.94,5,332.52,5.31,336,5.9a44.88,44.88,0,0,1,4.72-3.69A165.23,165.23,0,0,1,357.9,5.57l6.71,1.24,6.73,1.76a55.75,55.75,0,0,1,5.64-2,102.57,102.57,0,0,1,12.66,7.12,112.61,112.61,0,0,1,21.09,15.41c-.81,2.08-2.15,4-3,6a69.54,69.54,0,0,0-10.17-4.82L395.71,29a30,30,0,0,0-.49-6.93,100.67,100.67,0,0,0-11.93-6.26C376.67,15,370,12,365,12.61a70.66,70.66,0,0,0-12.37-4.08A109.91,109.91,0,0,0,338,8.72c-2.59.66-5.62,1.23-8.09,2.08-3.69,4.85-9.16,4.42-13.46,5.6l.32,2.67-3.79.76c-5.34.94-10.57,2-16.15,3.48-7.49,1.84-8.81,6.27-10.17,8.91-3.24,1.9-6.45,3.78-9.28,5.62-2,.9-4.51,1.79-6.6,2.59l-2.19,3.65a202.27,202.27,0,0,0-25.55,17.14l-2.78,7.58c-3.43,2.42-6.88,5.27-10.41,8.12-2.88,3.47-5.41,6.81-8,10.52l-3.27,4,1.29,1.15c-3.09,3.61-6.56,7.39-9.59,11.06L209,102.56c-6.52,7.12-3.71,8.81-6.14,13.76l-5.23,10.43c5.54-.07,10.42-6.27,9.86-10.84l1.85-2.8c2.89-2,5.62-3.71,8.56-5.59-1.26,13.16-10.43,18.09-12.41,27.83-5.27,8.77,1.51,13.93-6.78,21.53-5.26,7.16-6.63,12.66-4.25,15-2.83,8.54-5.23,17.51-7.6,26.48-3.68,1.14-1.87,5.11-3.33,8.65,1.22,9.22-1.06,17.14-3.3,25.21s-4.17,16.28-1.91,25.24c-3.62,7.11-1.56,11.36-1,18.44l-1.77,15.15c2.88,4.18,2,8.16.94,12.68s-2.35,9.51-.4,14.87c.22,4.82.54,9.33,1.17,13.81C179,338.77,185,347,182,348.92c1.86,5.48-2.56,8.23,1.54,15.56,5,7.66,7.31,19.73,12.45,23.71a28.59,28.59,0,0,0,2.83,9.27c.83,1.69,1.71,3.46,2.72,5.2l3.29,5.15c4.62,6.83,9.84,13,11.87,19.23,8.6,5,18.45,17.63,29.19,24.43,2.16,1.5,4.27,3.08,6.51,4.46-1.5,1.5,2.33,3.61,4.34,4.77,2.11,1,4.18,3.36,6.26,2.51.56-1.5,4,1.59,6.89,6.76l-.45.84c-3-.11-5.7-.29-9.15-.59,2.58,4.44,5.74,6,8.4,9.34,1.09-.54,1.85-1.24,2.92-1.8,3,.41,5.84.67,9,.82,1.59,1.75,3.65,4,5.37,5.65,8.12,4.5,5.4-2.2,11.38-1.75,4.29,2.58,9,5,13.41,7.24,11,.34,19.16,5.4,29,3.07a43.34,43.34,0,0,1,2.93,4.75c3.45-.09,6.55-.27,10-.66,5.46.47,11,.76,16.6.71,1.61-1.54,4.81-2.68,7.71-3.07s5.53,0,5.82,2a155.43,155.43,0,0,0,18.08-3c1.93-1.31,3.71-2.59,5.45-3.88s2.63-2.42,4.07-3.66c-3-2.66,2.81-6.68,7.62-7.25l3.72,2.61,5.65-3.66c2.1.31,4.46.33,6.56.64l5.86-2,8.94-3.16c7.12-3.57,8.42-5,10.89-6.94l-1.16-3.45c1.72-2.06,3.15-3.91,4.52-5.91,7.58-3.87,14-4.41,21.09-7.08,10.27-2.76,8.53,3.09,10.79,5,2.41-1.22,4.86-2.37,7.25-3.65A54.46,54.46,0,0,0,508.7,454C511.17,456.77,504.52,460.58,498.53,463.25Z"/><path class="cls-4" d="M432.9,414.45c-4.53,4.12-7.62,4.39-10.79,3.09C425.9,413.76,431.29,409.58,432.9,414.45Z"/><path class="cls-5" d="M411.49,444.31c-.94,1.3-2.22,2.52-3.45,3.93a53.46,53.46,0,0,0-8.29,2.48l-7.25,2.92a29,29,0,0,1-15.06,2c-4,6.89,4.35,7.08,1.93,11-1.37,3-5.47,1.36-8.54,3.38l0,1c-3.08,5.34-3.15,6.88-3.13,8.4l-11.13,2.13c-2.85-2-6-3.63-8.69-5.69,1.91-4.25,9-1.59,9.18-5.39,2.22-.55,4.1-1.22,6.29-1.82-9.81-4.34-18.64-3.48-26.61-4.48-1.71-1.24-3.67-2.77-5.32-4.08a35.84,35.84,0,0,1,3.44-3.33l5.76-.56c5.68.17,11.36-.09,17-.44,2.66-.23,4.72-.66,7.07-.9a60.35,60.35,0,0,0,2.81-5.69c2.82-1.07,5.26-2.2,7.85-3.43a73.08,73.08,0,0,0,8.74.82,8.42,8.42,0,0,0,4.75-1.33l1.65-1.25a12.12,12.12,0,0,1,2-1.32l2.69-.85c5-.77,10.17-1.84,14.77-2.72Z"/><path class="cls-6" d="M482.65,403.3c-5.27,3.88-10.63,7.69-16.46,11.4-4.6,2.8-9.06,5.31-13.82,7.93l-2.5,1c-2-1.06-4-2.3-6-3.56-6.36,1.63-1.7,5.16-4.93,7.83-4.71,2.16-9.77,4.21-14.91,6.36l-7.25,1.46c-1.64-1.27-3.64-2.62-5.62-4-6.75,2-14.82,4.38-15.92,9.94l-2.69.85a12.12,12.12,0,0,0-2,1.32l-1.65,1.25a8.42,8.42,0,0,1-4.75,1.33,73.08,73.08,0,0,1-8.74-.82c-2.59,1.23-5,2.36-7.85,3.43-3.07.22-6.26.18-9.67.28a4,4,0,0,0-.21,6.31c-5.63.36-11.3.61-17,.44l.89-9.14c-5-3.49-10.73-3.68-16.89-3.93s-12.83-.4-18.52-3.62a74,74,0,0,0-8.24-3.38l-7.66-2.62c-5.4-2-10.54-4.54-14.15-9.21l13.16,5.32c2.13.91,4.26,1.64,6.33,2.45s3.11,1.09,5.15,1.63c7.56,2,16.69,3.35,24.32,2.6l-.15.95c9.35.06,19.49,3.9,30.71,3,6.19-1.29,11.12-3.64,13.1.63,2.19-.06,4.21-.31,6.29-.47a21.35,21.35,0,0,1,2.21-1.18c1.45-.1,2.85-.14,4.24-.14l3.75-.11-.86-4.51a10.24,10.24,0,0,0,2.58-1.83c.34-.28.51-.49.89-.79l1.42-1a25,25,0,0,0,3.69-3.49c10.05-3.2,19.63-6.29,29.19-9.64,3.18,1.3,6.27,1,10.79-3.09a359.72,359.72,0,0,0,54.61-20.18C485.86,397.36,484.5,400.42,482.65,403.3Z"/><path class="cls-7" d="M392.92,427.18a25,25,0,0,1-3.69,3.49l-1.42,1c-.38.3-.55.51-.89.79a10.24,10.24,0,0,1-2.58,1.83l.86,4.51-3.75.11c-1.39,0-2.79,0-4.24.14a21.35,21.35,0,0,0-2.21,1.18c-2.08.16-4.1.41-6.29.47-2-4.27-6.91-1.92-13.1-.63-11.21.87-21.36-3-30.71-3l.15-.95c-7.63.75-16.76-.55-24.32-2.6-2-.54-3.09-.94-5.15-1.63s-4.2-1.54-6.33-2.45l-13.16-5.32c3.61,4.67,8.75,7.17,14.15,9.21l7.66,2.62a74,74,0,0,1,8.24,3.38c5.69,3.22,12.38,3.46,18.52,3.62s11.89.44,16.89,3.93l-.89,9.14-5.76.56c-2.26-1.17-4.5-2.35-6.74-3.34-4.33-.89-1.85,2.47-5,3.06-3.86-.44-7.33-1.06-11.1-1.67a118.88,118.88,0,0,1-21.87-5.77c-4.27-.13-9.35-3.37-14-5.52l-5.9-5.53c-4.53-5.89-6.61-7.95-9.13-8.34a63.88,63.88,0,0,1-4.39-6.72c-1.83-.77-3.43-1.42-5.41-2.09-1.67-2.58-3.49-5-5.06-7.46a76.71,76.71,0,0,1-9-5.92l-2.73-4.08L232,398.93c-1.16-1.7-2.15-3.46-3.25-5.16,3.29-5.71-4.57-2.46-5.27-10.89a8.05,8.05,0,0,1-2.19-.81c-5.35-3.87-5.86-11.68-8-15.37-.09-3.11-.07-5.91-.06-9-.78-2.84-1.13-5.46-1.81-8.28-1.7-3.75-3.39-7.8-4.9-11.6l-.32-1.39a131.17,131.17,0,0,1-2-14.91c-.88-8.89-3.52-9.19-5.46-14.19,1.42-7.88-1-9.23-1.17-12.35,1.85-7.53,2-10,2.18-12.27.39-6.41,1.06-13.2,1.89-19.68-.75-1.92-2.22-3.7-1.88-6.09l.43-3c.55-2.64,1.48-5.53,2.33-8.42,1.37-3.4,4.84-9.61,3.71-15.14,1.61-5.77,3.29-11.2,4.9-16.62.3-6.45,1.32-10.82,2.18-17.43.66-4.19,1.48-8.3,2.24-12.77,6.1-12.1,4.34-16,8.09-23.82,1.17-4.59,2.52-9.22,4.09-13.81,1.67-4.16,3.44-8,5.18-11.84,1.78-.92,2.47-4.82,4.82-7.15,12-12.5,16.65-19.78,20.11-27.7,2.83-3.86,6.07-7.74,8.83-11.33,2.24-1.91,4.39-3.94,6.45-5.54,7.25-2.9,7.08-4.45,9-6.8l-.93-1.45c1.64-1.23,3.38-2.26,5.11-3.35a60.27,60.27,0,0,1,5.39-3.17,6.44,6.44,0,0,1,.83-1.53c2.39-1,5.1-1.94,7.56-2.68.91-.8,1.64-1.3,2.3-2,2.83-1.42,6-2.93,8.88-4.24l5.46-.56c2.42-.87,5.12-1.79,7.86-2.69a94.67,94.67,0,0,1,15.82-1.29c-7.07,2.26-10.4,7.07-15.43,4.13-2.68.69-5.31,1.61-7.67,2.45-4.64,3.22-9.74,4.88-14.93,6.12-.22,1.72-.38,3.5-.5,5.25-1.68.79-3.16,1.44-4.76,2.35,1.23,4.37-2.31,5-4.67,6.86a23.74,23.74,0,0,0-.72,3.82c-2.06,2.09-4.1,4.18-6.28,6.56-2.52.58-5.81-1.12-8.07,1.84,2.05,3.87,9.71,8.39,2,14.4-7.92,6.13-13.21,16-21.45,24-.37,3.94.34,7.17-3.94,11.72-1.7-1.57-3.39,1.59-4.58,3.42-3.19,5.44-1.49,7.78-5.61,13.1-.83.75-1.37,1.36-2.08,1.88.61,4.94,1.85,5,1.13,7.82,4.8-4.13,3.81-5.6,4.91-7.37.35-.69.78-1.37,1.17-2.05,1.82-2,3.42-3.73,5.34-5.63-1.44,2.21-2.54,4.27-3.86,6.52l4.46,5.32-1.76,3.29a139.92,139.92,0,0,1-11.09,10.36l-1,2.43.57,8.56c-.46.68-1.09,1.29-1.55,2-.23,2.19-.34,4.52-.51,6.74-.9,2.54-1.66,5.22-2.41,7.57a6,6,0,0,1,.5,1.62l-2.21,7.72c-1.13,2-2.22,4-3.52,6l-5.14-1.49a20.69,20.69,0,0,0-2.48,2l-.33,1.41c.76,5,1.43,9.88,2.38,14.78a7.34,7.34,0,0,0,2-1c-1.35,5.49-2.7,10.71-3.74,16,.24,2.94.89,5.6,1.41,8.53l-3.6,14.27c1.56,10.13,2.57,16.87-.14,21-.09,4.27-.35,8.35-.24,12.8.12,1.21.22,2.44.37,3.43.63,1.7,1.15,3.12,1.63,4.83-.21,2.06-.58,3.88-.66,6.25,1.67,1.56,3.36,3.32,5.49,3.94a97.42,97.42,0,0,0,1.75,11q3,9.24,6.93,18.85c1.32,3.2,2.67,6.42,4.12,9.66l2.2,4.88L245,375l.76,1.42a6.72,6.72,0,0,0,3.28,2.46,10.28,10.28,0,0,1,3.55,2.44l.9,1.55c.21,1.88.37,4.06.77,6.05a87.65,87.65,0,0,0,9.4,10.57c2.62,2,5.23,3.81,8,5.78,1.07.81,2.27,1.84,3.39,2.63a120,120,0,0,0,17.33,10.91c1.52.72,3,1.59,4.55,2.22s3.28,1.52,4.09,1.78l1.54.65,2.12.66c1.31.48,3,.89,4.65,1.31,13.63,3.38,30.8,5.29,46.65,5.54,6.79,4.73,5.56.88,7.63-.09a158,158,0,0,0,20.06-.28c1.39-.32,2.06-.77,3.16-1.09Z"/><path class="cls-4" d="M364.69,454.73c-2.35.24-4.41.66-7.07.9a4,4,0,0,1,.21-6.31c3.41-.1,6.61-.06,9.67-.28A60.35,60.35,0,0,1,364.69,454.73Z"/><path class="cls-8" d="M459.67,466.24c-2.46,1.93-3.76,3.37-10.89,6.94l-8.94,3.16-5.86,2a18.13,18.13,0,0,0-1,2.35,54,54,0,0,1-5.55-3l-5.65,3.66-3.72-2.61c-4.82.57-10.64,4.59-7.62,7.25-1.43,1.24-2.33,2.38-4.07,3.66s-3.51,2.57-5.45,3.88a155.43,155.43,0,0,1-18.08,3c-.29-2-2.9-2.45-5.82-2s-6.1,1.52-7.71,3.07c-5.61,0-11.14-.24-16.6-.71-3.48.4-6.58.57-10,.66a43.34,43.34,0,0,0-2.93-4.75c-9.83,2.33-18-2.73-29-3.07-4.42-2.22-9.12-4.66-13.41-7.24-6-.45-3.26,6.24-11.38,1.75-1.72-1.66-3.78-3.9-5.37-5.65-3.17-.14-6-.41-9-.82-1.07.56-1.83,1.25-2.92,1.8-1.06-.29-2.2-.4-3.68-.69-1.69-2.86-2.85-5.75-4.71-8.65a84.17,84.17,0,0,0,9.6-.25c-2.92-5.17-6.33-8.25-6.89-6.76-2.08.85-4.15-1.52-6.26-2.51-2-1.16-5.84-3.26-4.34-4.77-2.24-1.38-4.35-3-6.51-4.46-10.74-6.8-20.6-19.42-29.19-24.43-2-6.19-7.25-12.4-11.87-19.23l-3.29-5.15c-1-1.74-1.89-3.5-2.72-5.2a28.59,28.59,0,0,1-2.83-9.27c-5.15-4-7.45-16-12.45-23.71-4.1-7.33.32-10.08-1.54-15.56,3-1.94-3-10.15-4.71-16.48-.63-4.48-.95-9-1.17-13.81-1.95-5.36-.69-10.39.4-14.87s1.94-8.49-.94-12.68l1.77-15.15c-.53-7.08-2.59-11.32,1-18.44-2.27-9-.25-17.19,1.91-25.24s4.52-16,3.3-25.21c1.45-3.54-.35-7.51,3.33-8.65,2.37-9,4.77-17.94,7.6-26.48-2.38-2.37-1-7.87,4.25-15,8.29-7.6,1.51-12.76,6.78-21.53,2-9.74,11.15-14.67,12.41-27.83-2.95,1.88-5.67,3.57-8.56,5.59l-1.85,2.8c.57,4.57-4.32,10.77-9.86,10.84l5.23-10.43c1.84-4.54,4-9.28,6.14-13.76l1.35,1.06c3-3.67,6.49-7.45,9.59-11.06l-1.29-1.15,3.27-4a96.91,96.91,0,0,1,5.64-8c.92-1,1.6-1.82,2.32-2.56,3.52-2.85,7-5.7,10.41-8.12a27.48,27.48,0,0,0,.16-5.19c.74-.75,1.56-1.44,2.62-2.39a202.27,202.27,0,0,1,25.55-17.14l2.19-3.65c2.09-.81,4.58-1.69,6.6-2.59l1.12,2.43c2.47.12,5.17.07,7.61.43a36.61,36.61,0,0,0-2.92,5.51c-8.22,6.41-13.34,16.29-19.82,23-2.43-.3-4.25.83-6.27,2.72s-4.38,4.4-7.75,7.19l1.27,1.43a177.51,177.51,0,0,0-15.16,19.26c-4.44,3.32-.61,4.58-1.27,7.33l-4.59,6c-2.37,6.19-5.26,13.76-6.4,19.31a159.8,159.8,0,0,0-20.46,43.6c-4.51,14.8-7.36,29.89-9.51,46.18-1.39,8.24-6.38,7.42-4.1,20.4l-.91,10.57c-3.88,11.92-3.36,19.53-6.45,24.8.75,8.56,4.38,6.37,4.06,9.12-.06,2.14-.2,4-.2,6.11-1.81,8.1.73,10,1.25,13-1.58,8.23,1.21,9,1,11.44l.21,1.5c.7,5.71,1.8,11.4,3,17.38l1,4.18c.06,4.36.33,9,.8,13.42,1.88,5.62,4.14,11.45,6.35,17l2.6,7-.72.24a96.7,96.7,0,0,0,9.44,23.89c4.27,7.63,9.38,14.27,12.58,19.71,6.92,4.44,12.34,12.48,17.88,16.3-.65,4,5.37,5.83,7.65,9.57,2.47,2,4.62,4,7.24,5.83,4.1,3.14,9.53,5.71,14.43,8.33s9.44,5,11.9,8.42a145.77,145.77,0,0,0,16.43,1.17c.74,1,1.43,2.09,2.46,3.32l7.69,1.51c.07,1.17-2,2.76.5,3.78,7.91.9,10.85-.53,16.5-3.32,3.08,1,6.22,2,9.06,2.74,2.64-.22,5.24-.2,7.85-.47l5.13-3.44c2.72,2.06,5.84,3.74,8.69,5.69l11.13-2.13a106.16,106.16,0,0,0,11-1.74l2.93-.27c4.25-.54,8.51-1.16,12.79-2.09,2.12.6,4.69.77,7,1.18,7.5-2.65,13.72-7.91,22-7L444,463.3c5.21-1.66,9.23.28,14.48-.52Z"/><path class="cls-9" d="M357.07,470.34c-2.5-.22-4.67-.6-7.44-1.05-4.9-1.34-5.77,1.7-7.86,3.52-2.81-.58-5.91-1.13-8.71-1.56-2.34.93-4.41,2.08-6.81,3l-.4,2.65c-5.65,2.79-8.59,4.22-16.5,3.32-2.48-1-.43-2.6-.5-3.78l-7.69-1.51c-1-1.23-1.72-2.36-2.46-3.32a145.77,145.77,0,0,1-16.43-1.17c-2.46-3.38-6.95-5.87-11.9-8.42S260,456.84,256,453.7c-2.62-1.86-4.77-3.8-7.24-5.83-2.28-3.73-8.3-5.54-7.65-9.57-5.54-3.82-11-11.87-17.88-16.3-3.2-5.44-8.31-12.08-12.58-19.71a96.7,96.7,0,0,1-9.44-23.89l.72-.24-2.6-7c-2.21-5.51-4.47-11.34-6.35-17-.48-4.37-.75-9.06-.8-13.42l-1-4.18c-1.25-6-2.35-11.67-3-17.38l-.21-1.5c.17-2.42-2.62-3.21-1-11.44-.51-3-3.05-4.87-1.25-13,0-2.11.14-4,.2-6.11.32-2.75-3.31-.55-4.06-9.12,3.09-5.26,2.56-12.88,6.45-24.8l.91-10.57c-2.29-13,2.7-12.16,4.1-20.4,2.15-16.28,5-31.38,9.51-46.18a159.8,159.8,0,0,1,20.46-43.6c1.14-5.55,4-13.13,6.4-19.31l4.59-6c.66-2.75-3.17-4,1.27-7.33A177.51,177.51,0,0,1,250.62,80.6l-1.27-1.43c3.38-2.79,5.68-5.35,7.75-7.19s3.84-3,6.27-2.72c6.49-6.76,11.61-16.64,19.82-23a36.61,36.61,0,0,1,2.92-5.51c-2.44-.36-5.14-.3-7.61-.43l-1.12-2.43c2.83-1.85,6-3.72,9.28-5.62,1.37-2.64,2.69-7.07,10.17-8.91,5.58-1.43,10.81-2.54,16.15-3.48l3.79-.76c3.09-.21,6.21-.42,9.31-.44,5.81-1.34,11.19-2.78,17.22-3.44a59.86,59.86,0,0,1,20.53.89A95.36,95.36,0,0,1,395.71,29l1.83,1.3-1.74,2.05c-4-2-7.8-3.43-11.87-5.06-.51.76-6.55-1.37-5.63,1.37a24.72,24.72,0,0,1,7.94,4.62,26.91,26.91,0,0,1,4.52,4.94c2.42,3.29,4.31,6.23,9,9.35,2.05,1.72,3.92,3.11,5.82,5a101.94,101.94,0,0,1,6.59,16.37A102.79,102.79,0,0,0,397,52.58a98,98,0,0,0-20.55-13.49A230.53,230.53,0,0,0,354.34,30c-9-2-10.74,4-17.45,3.45-9.68,3.14-18.34,7.44-27.38,12-.84,1.88-2,3.77-3,5.75a80.54,80.54,0,0,0-9.4,4.67l-1.12.5a124.38,124.38,0,0,0-12.73,1.4c-.42,2.62-.42,5.2-.66,7.82,2.76-.69,5.81-1.32,8.82-1.81l1.17,2.41a6.44,6.44,0,0,0-.83,1.53,60.27,60.27,0,0,0-5.39,3.17c-1.74,1.09-3.47,2.12-5.11,3.35-2.83,1.49-5.79,3.42-8.54,5.19a9.37,9.37,0,0,1,.45,3.05C271.14,84,269,86.06,266.76,88c-2.76,3.59-6,7.47-8.83,11.33-3.46,7.93-8.16,15.2-20.11,27.7-2.36,2.34-3,6.23-4.82,7.15-1.74,3.85-3.51,7.68-5.18,11.84-2.54,4-5.06,8-7.47,12a220.9,220.9,0,0,0-7.19,24.63c-1.21,2.07-2.1,4.31-3.23,6.45-2.17,3.37-.31,6-.84,9-2.86,10.15-5.12,20.54-7.22,31.26q-1.53,12.28-2.53,24.52l.94.17-.43,3-3,8.33c-.32,5.72-2,12.16-.61,17.08l-2.09,2.79c.85,3.32,1.59,6.72,2.58,9.8-.43,2.24-.56,4.5-.85,6.78,1,2,3,3.08,3,5.61-.46,2.26-.78,4.27-1.11,6.88-.14,2.6,1,4.54,1.83,6.73a122,122,0,0,0,1.6,13.82c.57,2.56,1.23,5.42,1.92,8l1.69-.37c1.06,2.74,2.31,5.48,3.18,8l-.93.24c1.26,2.73,2.35,5.17,3.5,7.94.92,2.81,1.81,5.35,2.82,8.16,2.13,3.68,2.64,11.49,8,15.37l1.07,9.48c1.55,1,2.44,2.79,3.48,4.54s2.19,3.47,3.9,4.27l-.09,6.2c2,1,3.62,1.81,5.38,2.52,2.45,3.26,4.76,6.36,7.43,9.59l.7-.66c1.77,1.76,3.82,3.65,5.68,5.34,3.37,2.94,7.09,6,10.53,8.42l-1.07,1.36c-8.6-1.59-13.66-5.87-19.19-11.32L237.89,423c7.05,10.9,17.76,15.11,20.19,20.26a103.66,103.66,0,0,0,18.09,11.61A72.39,72.39,0,0,0,287,459.2a42.7,42.7,0,0,0,10.33,1.66c1.4,1.56,3.13,3.31,4.63,4.85,1.6,0,2.87,0,4.49,0,2.94,1,5.66,1.65,8.67,2.49l.71-3.57c3.73-1.48,7.77-3.39,11.36-5-1.36-1.11-2.72-2.08-4-3.2,3.1-.58.63-3.95,5-3.06,2.24,1,4.48,2.17,6.74,3.34a35.84,35.84,0,0,0-3.44,3.33c1.65,1.32,3.6,2.84,5.32,4.08,8,1,16.8.14,26.61,4.48C361.17,469.13,359.29,469.79,357.07,470.34Z"/><path class="cls-4" d="M342.76,479.17c-2.61.26-5.21.25-7.85.47-2.83-.77-6-1.69-9.06-2.74l.4-2.65c2.39-.93,4.47-2.07,6.81-3,2.79.43,5.9,1,8.71,1.56,2.14.87,4,1.88,6.12,2.92Z"/><path class="cls-4" d="M277.6,132.3c.8-1.31,1.67-2.86,2.4-4.21,3.41-3.27,7.06-6.55,10.46-9.42l1.81,2c2.33-2.31,4.91-4.41,7.25-6.43a10,10,0,0,0,2.85.22,6.69,6.69,0,0,1-2.26,5.54,10.7,10.7,0,0,1-5.91,2.79c.31,1,.67,1.73,1,2.73-4,3.61-8.16,7.43-12.16,11.62-3,3.15-5.81,6.2-8.59,9.64a36.08,36.08,0,0,0-5.14-2.36C272,140.05,274.82,136.17,277.6,132.3Z"/><path class="cls-6" d="M427.25,68.72c3-3.14,6.14,2.55,8.94,7.75s5.44,10,9.22,4.58c1.13-1.23,2.43-2.11,3.55-3.36l3.44-1.22c1.64,3.79,3,7.24,4.37,11.12,1.69.8,3.25,1.67,4.92,2.54,2.82,4.9,5.48,9.94,8.07,15.12-3.22,6.5-5.21,6.66-6.89,6.92L458.74,103a34.35,34.35,0,0,1-5.91,3.14l-.75.15-4.51.86c1,4,2,8.45,2.71,12.54-.88.48-1.71,1.32-2.6,1.8A48.63,48.63,0,0,1,441,125.8c-1.24-5.57-2.75-11.06-4.35-16.49l-.48-1.7,4.5-1c.06-1.87.27-3.41.46-5.34-2.69-4.26-5.39-8.4-8.4-12.32a52.32,52.32,0,0,1-6.54,5.86l-.91.3a29.82,29.82,0,0,1-5-.1,40.77,40.77,0,0,1-.82,5.41c-1.72.87-3.16,2-4.89,2.82l-.91.28c-1.46-2.45-3.1-5.14-4.74-7.46-2.33-4.94.34-8.45,2-10.63l4.2-1.87c.57-1,1.29-1.67,1.86-2.66,2.18.86,4.34,1.79,6.34,2.48.92-.75,1.86-1.9,2.77-2.66a18.64,18.64,0,0,0,2.38.57C428.33,77.16,427.7,73.08,427.25,68.72Z"/><path class="cls-4" d="M462.64,79.31c-.21,4.1-.57,7.28-1,10.83-1.68-.87-3.23-1.74-4.92-2.54-1.37-3.88-2.74-7.33-4.37-11.12a29,29,0,0,0,1.93-5.12C457.29,74.3,459.76,76.61,462.64,79.31Z"/><path class="cls-4" d="M429,147.16a79.23,79.23,0,0,0,9-6.2h1.73a14.73,14.73,0,0,0,2.94,1.77c3.81-.3,7.8-1,11.8-1.68,2.76-2.21,6.11-6.61,6.51.1.07,2,.18,4,.17,5.94l-5.54-.29c-4.12,4.13-7.47,13.1-11.85,2.7-4.91,8-12.52,10.67-14.72.88a78.35,78.35,0,0,0-10.17-4.7c-.06-1.49-.07-3-.2-4.5a25.45,25.45,0,0,1,1.73-2.78C423.24,141,426.08,144.15,429,147.16Z"/><path class="cls-5" d="M494.91,454.81c-2.26-1.92-.51-7.76-10.79-5,4.63-2.56,9.28-5.1,13.8-7.86,5.6-.36,10.64,4.53,4.24,9.22C499.77,452.45,497.31,453.59,494.91,454.81Z"/><path class="cls-5" d="M484.24,406.57c.06,2.13.09,4.28,0,6.25-10.92,12.39-7.86-.64-16.32,6.12-2.2,1-4.33,2-6.57,3l-9,.72c4.77-2.62,9.22-5.13,13.82-7.93,5.83-3.71,11.19-7.51,16.46-11.4Z"/><path class="cls-5" d="M438.93,427.91c-2.88,4.77,3.39,9.37-7.19,10.56-4.59-.21-5.08-2.9-7.71-4.21C429.15,432.12,434.22,430.07,438.93,427.91Z"/><path class="cls-5" d="M439.61,492c-2.49.83-5,1.67-8,.65l-9,2.92c-3,1.38-5.62,2.59-8.64,3.76a11.69,11.69,0,0,0-2.22-2.1l-.25-.93L421.94,493c1.6-1.52,3.49-3.14,5.15-4.48a23.41,23.41,0,0,0,3.54.65c3.37-1.34,6.66-2.78,10-4.36l1.82.38C441.42,487.52,440.33,489.74,439.61,492Z"/><path class="cls-5" d="M422.38,455.22c-8.45,6-14.61,7.56-17.12,5.56C413.6,455.31,418.49,453.09,422.38,455.22Z"/><path class="cls-5" d="M383.6,430.59a158,158,0,0,1-20.06.28L360.93,429c-1.58.57-3.38,1.23-5,2-15.85-.25-33-2.16-46.65-5.54-1.66-.42-3.34-.83-4.65-1.31l-2.12-.66L301,422.8c-.81-.26-2.64-1.14-4.09-1.78s-3-1.5-4.55-2.22A120,120,0,0,1,275,407.89c1.72-1.12,3.29-2.11,4.94-3.27,5.63,5,11.7,10.2,18.31,9.67a11.8,11.8,0,0,0,4.26,2.21,18,18,0,0,0,3.42.06l2.17-.08c.81,0,1.72-.06,2.57,0a27.39,27.39,0,0,1,5.54.69c.14,1.6-1.47,3.41.19,4.72,4,1,8.45-.61,12.47-1.59s7.71-1.23,10.87,2.6a117.1,117.1,0,0,0,11.63-2.1l8.35,1.95a24.44,24.44,0,0,1,2.53,1.68c2.74.3,5.48.37,8.09.56,4.6-.11,9.2-6,11.17-.38l1-.9c.29-.3.43-.6.66-.84a2.63,2.63,0,0,1,.69-.6,1.64,1.64,0,0,1,.4-.16l1.06-.31c-.48,3,4.79,2.29,7.59,5.43l-6.15,2.33C385.67,429.82,385,430.27,383.6,430.59Z"/><path class="cls-5" d="M331.91,503.39c-3.15-.3-6.63-.57-10.13-1l.47-2.83,10,1Z"/><path class="cls-5" d="M294.49,498.9c-6.14,1.24-11.39.61-10.9-2.81l5.41,1.53Z"/><path class="cls-5" d="M257.27,482a74.72,74.72,0,0,1-28.48-14.64c-7.69-6.18-14.09-13-21-20-9.31-7.41-18.92-18.88-26.1-32.5-1.78-3.3-3.45-7.16-4.81-10.35-1.16-3-2.3-5.88-3.34-8.82-2.14-5.83-4-11.59-5.59-16.88,1.1-2.09-1-5.38-1.69-8a8.49,8.49,0,0,0-1.44-1.39c-6.48-16.27-9.89-33.16-11.71-50.09-.91-8.48-1.46-17-1.73-25.59-.25-8.39-.56-16.52-1.08-24.81,1.91-2.49,1.51-7.35,2.15-11-2-12.46,3.36-30.33,6.1-45.25-2.54-5.65,3.77-16.84,3.56-24.43,2.91-8.39,4.12-16.69,6.17-25s4.7-16.8,10.46-24.59c.1,2.11,1.85,5.16.61,12l5,2.47c-3.2,8.39-6,16.37-8.34,24.78a16.28,16.28,0,0,0-3.93.3l.51,10.54c-2.37,8.69-4.32,17.47-5.9,26.28-1.9,4.61-4.2,11.24-1.61,15.95-.77,3.2-1.75,6-2.64,9.22L161,256l-.63,14.36-.16,1.67c.19,3.72.61,7.49,1.09,11.56.09,3.74.2,7.35.45,11.2l1.21,11.72v11.3A233,233,0,0,0,168.79,350c.84,3.28,1.71,6.53,2.57,9.44.9,3.24,1.86,6.09,2.84,9.3l2,6c-.12,3.16,3,7.78.12,8.33,2.5,6.2,4.28,13.29,9.52,18.81-1,4.74,1.72,12.92,6.48,20.27a99.47,99.47,0,0,0,15.21,18.27A214.9,214.9,0,0,0,226,458.93a139,139,0,0,0,22.89,16.48C251.72,477.74,254.26,479.88,257.27,482Z"/><path class="cls-5" d="M263.62,399.48a87.65,87.65,0,0,1-9.4-10.57c-.4-2-.55-4.17-.77-6.05,2.51-.61,3.54.7,4.6,2.12s2.14,2.9,4.32,2.26c3.34.12,3.59,5.29,5.13,8.31,1.76,1.76,3.56,3.28,5.33,4.82-1.21.75-.27,2.29-1.25,4.9C268.85,403.29,266.25,401.51,263.62,399.48Z"/><path class="cls-5" d="M230.61,339.2a97.42,97.42,0,0,1-1.75-11c.26-1.35.59-2.68.93-4-2.85-5.58-5.52-2.67-5.76-6.19-.48-1.72-1-3.14-1.63-4.83-.15-1-.24-2.22-.37-3.43-.11-4.45.15-8.53.24-12.8,2.7-4.17,1.69-10.91.14-21l3.6-14.27c-.52-2.94-1.17-5.59-1.41-8.53,1-5.26,2.4-10.47,3.74-16,1.08-5.27,2.3-10.51,3.6-15.68,1.3-2,2.39-4,3.52-6l2.21-7.72a6,6,0,0,0-.5-1.62c.75-2.35,1.51-5,2.41-7.57,2.59-1.64,5-3.62,7.64-5.08,1.8-2.61-.27-4.92,1.78-7.33,1.21-3.11,2.52-6,3.79-8.81l3-6a23.15,23.15,0,0,0-2.59-2.83l1.76-3.29c2.24-2.77,4.43-5.54,7.12-8.31a113.49,113.49,0,0,1,6.69-11.67l.59-.82a36.08,36.08,0,0,1,5.14,2.36c-.68,2.28-1.41,4.79-2,7.39a19.27,19.27,0,0,1-4.54,5.17l-2.63,8c.23,2.93-2.36,5.46-3.43,8.31-1,2.06-2.07,4-2.87,6a191.44,191.44,0,0,0-12.25,27.69c.13.88.06,1.69.14,2.86l-5.24,12c-.44,1.58-.84,3.46-1.23,5.06-4.21,6-4.85,8.75-4.23,11.16-.25,2.22-.28,4.47-.51,6.68-2.35,5.42,3.83,2.5,2.61,7.25-1.59,1.35-3,3-4.57,4.4-.66,4-5.69,10.7-.64,12-1.69,3-2.29,9.15-1.15,12.6a9.37,9.37,0,0,0-.62,5.06,22.64,22.64,0,0,0,2.06,5.55c-4.76.5-4.69,1.93-.93,5.22-2.95,8-.5,17.49,1.83,24.18,0,3.41,0,8.86,3,9.2,2.81,9.38,3.74,16,8.83,24.91,3.48-4.32,4.72,5.53,4.86,7.88-1.79,3,.08,7.64.66,8.91.91,2.05,2.07,4.17.84,7a10.28,10.28,0,0,0-3.55-2.44,6.72,6.72,0,0,1-3.28-2.46L245,375l-1.1-2.39-2.2-4.88c-1.45-3.24-2.8-6.46-4.12-9.66Q233.6,348.46,230.61,339.2Z"/><path class="cls-5" d="M183.47,127.69c1.63-7.37,7.35-18.75,12.28-20.38C195.91,112.27,190.84,117.15,183.47,127.69Z"/><path class="cls-5" d="M208.35,86.51c.7-2.71,2.69-6,4.88-8.89a25.6,25.6,0,0,1,6.47-6C221.85,73.29,217.26,78.71,208.35,86.51Z"/><path class="cls-5" d="M224.67,66.3A27.86,27.86,0,0,1,229.79,58a26.9,26.9,0,0,1,6.44-5.31c3.58-3.25,7.08-6.15,11-9.21-.67,1.67-.67,5.08-9.89,10.56-2.27,1.94-4.35,4-6.46,6S226.64,64.18,224.67,66.3Z"/><path class="cls-5" d="M259.13,34.93A29.82,29.82,0,0,1,275,23.56c4.49-2.84,9.1-5.52,13.87-8.11a147.24,147.24,0,0,1,16.59-7c5.91-1.38,10.39-3.19,15.58-4.87A57.58,57.58,0,0,1,340.9.5a98.13,98.13,0,0,1,20.8.12A24.41,24.41,0,0,1,369.3,3L377,6.54a55.75,55.75,0,0,0-5.64,2l-6.73-1.76L357.9,5.57a165.23,165.23,0,0,0-17.17-3.36A44.88,44.88,0,0,0,336,5.9c-3.49-.59-10.06-.92-12.43,2.81l-3.73.54c-4.61,0-12.59.62-15.4,5.18-1.17.31-2.36.6-3.5,1a108.18,108.18,0,0,0-11.56,1.88A17.21,17.21,0,0,0,283.94,21c-1.4,1.15-3.27,2.35-8.24,4.36A165.7,165.7,0,0,0,259.13,34.93Z"/><path class="cls-5" d="M414.08,25.89c2.55-2.45,6.54-.16,10.28,3.72s7,9.22,9.64,12.71c3.77,2,7.5,6.67,10.53,10.59s5.57,7.13,7.85,6.36c3.94,6.28,2.44,6.95,1.94,12.09a29,29,0,0,1-1.93,5.12,153.2,153.2,0,0,0-14.34-21.75c-1.14-1.8-2.29-3.62-3.54-5.43l-1.24-1.8c-1.37-1.24-2.82-2.93-4.54-4.49A119.51,119.51,0,0,0,414.08,25.89Z"/><path class="cls-5" d="M462.64,79.31c1.54-1.82,3.11-4.63,4.4-1.35,3.24.86,5.4,3.5,8.22,7,.32,7.31-2.77,9.9-4.57,20.18,2,1,4.17,2,6.16,3-2.83,1.28-2.55,6.23-2.17,11s.84,9.52-.86,10l-1.92.06c-1.86,3.86-4,9.22-5.42,12l-5.55-.13c-.39-6.72-3.75-2.32-6.51-.1-4,.72-8,1.38-11.8,1.68a14.73,14.73,0,0,1-2.94-1.77c.67-4.86,1.14-10.16,1.34-15.15a48.63,48.63,0,0,0,6.65-4.32c.89-.47,1.72-1.32,2.6-1.8,1.41-2.06,2.92-4.19,4.23-6.34l8.35-1.17c1.68-.26,3.68-.41,6.89-6.92-2.59-5.18-5.25-10.22-8.07-15.12C462.08,86.59,462.44,83.41,462.64,79.31Z"/><path class="cls-5" d="M401.05,139.36c2.79,1.14,4.4,2.47,4,4.9-1.55,5.13-4.34,5.22-7.17,4.91-1.88-2.8-.93-7,.36-9.64Z"/><path class="cls-8" d="M449.87,423.64c-1.75,3-9.7,7.08-10.94,4.27,3.23-2.67-1.43-6.2,4.93-7.83C445.86,421.34,447.89,422.58,449.87,423.64Z"/><path class="cls-8" d="M416.77,435.73c-.14,2.86-4.56,3.13-6.77,3.25-4.6.88-9.78,1.95-14.77,2.72,1.1-5.56,9.17-7.91,15.92-9.94C413.13,433.11,415.13,434.46,416.77,435.73Z"/><path class="cls-8" d="M313,19.83c-5.34.94-10.57,2-16.15,3.48-7.49,1.84-8.81,6.27-10.17,8.91,1.37-2.64,2.69-7.07,10.17-8.91C302.42,21.87,307.66,20.77,313,19.83Z"/><path class="cls-8" d="M316.46,16.4c4.3-1.18,9.77-.75,13.46-5.6,2.46-.85,5.49-1.41,8.09-2.08a109.91,109.91,0,0,1,14.59-.19A70.66,70.66,0,0,1,365,12.61c5-.57,11.71,2.42,18.33,3.18a100.4,100.4,0,0,1,13.95,7.55c-1.61,1.25-1.74,3.11.3,6.93L395.71,29a95.36,95.36,0,0,0-31.86-12.91,59.86,59.86,0,0,0-20.53-.89c-6,.66-11.42,2.1-17.22,3.44-3.09,0-6.22.23-9.31.44Z"/><path class="cls-8" d="M452.39,76.48,449,77.7c-3-4.52-5.85-8.55-9.16-12.76-3.57-4.12-1.66-6.41-1.74-10.21A153.2,153.2,0,0,1,452.39,76.48Z"/><path class="cls-6" d="M513.81,381.09c-1,7.87-11.09,10.74-17.19,15.38a53.76,53.76,0,0,0-4.38-5C499.66,388.26,506.75,384.8,513.81,381.09Z"/><path class="cls-6" d="M363.54,430.87c-2.08,1-.84,4.82-7.63.09,1.64-.72,3.44-1.38,5-2Z"/><path class="cls-6" d="M327.22,459.56c-3.59,1.65-7.63,3.56-11.36,5l-.71,3.57c-3-.83-5.73-1.5-8.67-2.49-1.62.06-2.89,0-4.49,0-1.51-1.55-3.23-3.3-4.63-4.85A42.7,42.7,0,0,1,287,459.2a72.39,72.39,0,0,1-10.86-4.35,103.66,103.66,0,0,1-18.09-11.61c-2.44-5.15-13.14-9.37-20.19-20.26l1.26-1.17c5.53,5.45,10.59,9.74,19.19,11.32l1.07-1.36c-3.44-2.47-7.16-5.48-10.53-8.42-1.86-1.69-3.92-3.58-5.68-5.34l-.7.66c-2.68-3.23-5-6.33-7.43-9.59-1.76-.7-3.41-1.53-5.38-2.52l.09-6.2c-1.71-.8-2.77-2.56-3.9-4.27s-1.93-3.53-3.48-4.54l-1.07-9.48a8.05,8.05,0,0,0,2.19.81c.7,8.42,8.55,5.18,5.27,10.89,1.1,1.71,2.09,3.47,3.25,5.16l2.57,4.31,2.73,4.08a76.71,76.71,0,0,0,9,5.92c1.57,2.51,3.4,4.88,5.06,7.46,2,.67,3.58,1.32,5.41,2.09a63.88,63.88,0,0,0,4.39,6.72c2.51.39,4.6,2.45,9.13,8.34a33,33,0,0,1-5.1,0c5.23,6.69,8.39,3.95,11,5.57,4.66,2.15,9.75,5.4,14,5.52a118.88,118.88,0,0,0,21.87,5.77c3.77.61,7.25,1.23,11.1,1.67C324.5,457.48,325.86,458.44,327.22,459.56Z"/><path class="cls-6" d="M210.52,358.55c-1.15-2.77-2.24-5.21-3.5-7.94l.93-.24c-.88-2.49-2.13-5.23-3.18-8l-1.69.37c-.68-2.57-1.35-5.43-1.92-8a122,122,0,0,1-1.6-13.82c-.85-2.19-2-4.13-1.83-6.73.32-2.6.64-4.62,1.11-6.88,1.94,5,4.57,5.31,5.46,14.19a131.17,131.17,0,0,0,2,14.91l.32,1.39c1.51,3.8,3.2,7.85,4.9,11.6.69,2.83,1,5.45,1.81,8.28,0,3.05,0,5.85.06,9C212.33,363.9,211.43,361.36,210.52,358.55Z"/><path class="cls-6" d="M228.86,328.17c-2.14-.62-3.82-2.39-5.49-3.94.09-2.37.45-4.19.66-6.25.24,3.51,2.91.61,5.76,6.19C229.46,325.49,229.12,326.82,228.86,328.17Z"/><path class="cls-6" d="M199.33,253.82q1-12.23,2.53-24.52c2.09-10.71,4.36-21.11,7.22-31.26.53-3-1.33-5.59.84-9,1.13-2.14,2-4.38,3.23-6.45A220.9,220.9,0,0,1,220.34,158c2.41-4,4.93-8,7.47-12-1.57,4.59-2.92,9.22-4.09,13.81-3.75,7.87-2,11.72-8.09,23.82-.76,4.47-1.57,8.58-2.24,12.77-.86,6.61-1.88,11-2.18,17.43-1.61,5.42-3.29,10.85-4.9,16.62,1.13,5.52-2.35,11.74-3.71,15.14-.85,2.89-1.77,5.78-2.33,8.42Z"/><path class="cls-6" d="M240.11,191.81c.46-.69,1.09-1.29,1.55-2l-.57-8.56,1-2.43a139.92,139.92,0,0,0,11.09-10.36,23.15,23.15,0,0,1,2.59,2.83l-3,6c-1.27,2.86-2.58,5.7-3.79,8.81-2.05,2.41,0,4.72-1.78,7.33-2.62,1.46-5,3.44-7.64,5.08C239.77,196.33,239.87,194,240.11,191.81Z"/><path class="cls-10" d="M241.78,160.6l1.25-2.37.83.49c4.13-5.33,2.42-7.67,5.61-13.1,1.19-1.83,2.88-5,4.58-3.42,4.29-4.55,3.58-7.78,3.94-11.72,8.24-8,13.53-17.87,21.45-24,7.73-6,.07-10.53-2-14.4,2.26-3,5.56-1.27,8.07-1.84,2.18-2.38,4.21-4.47,6.28-6.56a23.74,23.74,0,0,1,.72-3.82c2.36-1.82,5.9-2.49,4.67-6.86,1.59-.92,3.07-1.56,4.76-2.35.12-1.75.28-3.53.5-5.25,5.19-1.25,10.3-2.91,14.93-6.12,2.36-.84,5-1.76,7.67-2.45,5,2.94,8.36-1.88,15.43-4.13l2.73.14a59.78,59.78,0,0,1,3.06,5.79,69.49,69.49,0,0,1,13.08.91l4-.36,4.12-.13c2.08,1,4.51,1.84,6.84,3l1.62-2.13,5.37,1.81a71.31,71.31,0,0,1,8.54,8.82,108.62,108.62,0,0,1,12.9,3.78c.7,1.06,1.54,2.41,2.34,3.77-3.73,3.08-2.65,4.54-1.92,5.89,2.35,1.91,3.87-.5,5.73-1.06,2,.48,4.31,3,2.15,2.52-1.69,2.18-4.37,5.69-2,10.63,1.64,2.32,3.27,5,4.74,7.46a37.63,37.63,0,0,0,1.42,10.4c.89,3.22,1.67,6.79,2.31,10.08l-5.49.82a44.74,44.74,0,0,0-3.1-5.32c-4,1.39-8,2.75-12.25,3.87l-.94.19c-.3-1.25-.5-2.26-.86-3.49l-.33-1.24a80.42,80.42,0,0,0-3-12c-.26-.74-.59-1.44-1-2.4-.88-2.16-2-4.51-3-6.6-1.68-1.23-3.84-1.28-4.75-3.31-.73-1.28-1.46-2.56-2.36-4a60.82,60.82,0,0,0-1.64-7.14c-2.5-3.07-5.06-7.27-9.17-8.51-.65,1.69-1.5,3.53-2.25,5.15,1.77,2.13,3.3,4.44,5.06,7-3.34-.36-5.6-4.14-7.62-1.77a34.23,34.23,0,0,0-6.6-4c-4.49-.89-8.27.68-15.29,2,2.91.08,4,1.06,4.48,2.21a16.71,16.71,0,0,1,.67,3.3,12,12,0,0,0-1.62,2.38,37.5,37.5,0,0,0-3.17-2.51l-.47,6.49c-.94.34-1.83.36-2.88.79a18.54,18.54,0,0,0-.73-2.87c-5.08,1.77-8-4.89-11.76-.2l.23.93a58.88,58.88,0,0,0-6.66,2A70.72,70.72,0,0,0,315,100a31.1,31.1,0,0,0,1.16,4.5,76.58,76.58,0,0,0-10.4,6.25,70.76,70.76,0,0,0-7.68-3.37c-.2-4.33,8-4.76,5.32-9.29a35.91,35.91,0,0,0-5.24,0c-1.77,1.41-4.4,2.63-4.12,5.4-8.32,7.8-14,14.84-20.49,23.5-3.17,3.75-6.43,7.8-9.39,11.81-1.37,1.59-2.92,3.05-4.29,4.66-1.91,3.18-3.82,6.67-5.55,9.91-1.92,1.9-3.52,3.65-5.34,5.63-.39.68-.82,1.37-1.17,2.05-1.1,1.76-.11,3.24-4.91,7.37C243.64,165.59,242.39,165.54,241.78,160.6Z"/><path class="cls-6" d="M250.47,159.88c1.32-2.25,2.43-4.31,3.86-6.52,1.73-3.24,3.64-6.73,5.55-9.91l6-.44-1.67-4.22c3-4,6.22-8.07,9.39-11.81,2.24.28,4.35.87,6.43,1.11-.73,1.35-1.6,2.9-2.4,4.21-2.78,3.87-5.62,7.75-8.27,12.1l-.59.82a113.49,113.49,0,0,0-6.69,11.67c-2.69,2.77-4.88,5.53-7.12,8.31Z"/><path class="cls-6" d="M237.82,127c12-12.5,16.65-19.78,20.11-27.7C254.47,107.22,249.77,114.5,237.82,127Z"/><path class="cls-7" d="M303.42,98.06c2.67,4.53-5.53,5-5.32,9.29a70.76,70.76,0,0,1,7.68,3.37c-1.11,1.15-2.19,2.55-3.4,3.72a10,10,0,0,1-2.85-.22l-2.85-3.58c-4.82,2.86-2.49,6.57-6.21,8-3.4,2.87-7,6.15-10.46,9.42-2.09-.24-4.19-.83-6.43-1.11,6.49-8.66,12.17-15.7,20.49-23.5-.27-2.77,2.35-4,4.12-5.4A35.91,35.91,0,0,1,303.42,98.06Z"/><path class="cls-6" d="M290.46,118.68c3.72-1.47,1.39-5.18,6.21-8l2.85,3.58c-2.34,2-4.92,4.13-7.25,6.43Z"/><path class="cls-6" d="M272.76,79.38c2.75-1.78,5.71-3.7,8.54-5.19l.93,1.45c-1.94,2.35-1.77,3.9-9,6.8A9.37,9.37,0,0,0,272.76,79.38Z"/><path class="cls-6" d="M283.3,57.71A124.38,124.38,0,0,1,296,56.3l1.12-.5a80.54,80.54,0,0,1,9.4-4.67,29.79,29.79,0,0,1,1.75-5.38c8.12-3.76,13-9.69,25.18-10.3-1.7-4.1,10.8.36,8.42-4.71,10.58-2.75,21.41.35,30.58,5.4,9.34,5.15,17,11.7,26.48,17.08,2.94,2.73,5.52,7.36,8.43,8.76.65-3.39-3.47-7.66-1.79-9.46l2.26-1.77a118.76,118.76,0,0,1,10.29,10.5,24.08,24.08,0,0,1,.49,5.67c-2,.7-4.43,1.22-6.45,2-11.58-6.11-17.39-8.56-24.07-14.38a49.88,49.88,0,0,0-10.49-4.43,46.88,46.88,0,0,1,7.33,7.75l-3.65,3.92-5.37-1.81a71.38,71.38,0,0,0-6.7-4.1c-2.37-1.34-4.42-2.77-6.95-4-6.81-1.09-12.09-.12-19,0l-.08,1-2.73-.14A94.67,94.67,0,0,0,324.67,54c-2.74.9-5.44,1.82-7.86,2.69l-5.46.56c-2.91,1.3-6,2.81-8.88,4.24-.66.69-1.39,1.19-2.3,2-2.45.74-5.16,1.73-7.56,2.68l-1.17-2.41c-3,.5-6.06,1.12-8.82,1.81C282.88,62.91,282.88,60.33,283.3,57.71Z"/><path class="cls-7" d="M342.87,83.23c7-1.33,10.8-2.89,15.29-2a34.23,34.23,0,0,1,6.6,4c2-2.37,4.28,1.41,7.62,1.77-1.75-2.55-3.29-4.87-5.06-7,.75-1.62,1.6-3.47,2.25-5.15,4.11,1.24,6.68,5.44,9.17,8.51a60.82,60.82,0,0,1,1.64,7.14c.9,1.41,1.62,2.69,2.36,4,.91,2,3.07,2.08,4.75,3.31,1,2.09,2.14,4.44,3,6.6-1.92-.08-3.95-.09-6,0,.9,2,1.84,4.32,2.7,6.63l.35.92-2.53.85-5.25,1.79c-4.06,2.84-4.34,4.47-6.17,4.4-1.11-1-2.18-2.15-3.15-3.13,1.08-1.52,2.06-3,3.06-4.64-1.74-4.18-3.4-9-7.73-9.5l-3.94,2.34a54,54,0,0,0-4.67-6.78A18.25,18.25,0,0,0,352.26,95c-1.65.85-2.13.56-2.88.06-1.22.32-2.27.3-3.81.6a16.92,16.92,0,0,0-2.82-.53l.47-6.49a37.5,37.5,0,0,1,3.17,2.51A12,12,0,0,1,348,88.74a16.71,16.71,0,0,0-.67-3.3C346.88,84.29,345.78,83.31,342.87,83.23Z"/><path class="cls-6" d="M361.8,104.08l3.94-2.34c4.33.54,6,5.32,7.73,9.5-1,1.59-2,3.12-3.06,4.64-1.35-1.94-2.86-4-4.34-5.75C364.07,109.94,363.17,105.94,361.8,104.08Z"/><path class="cls-6" d="M390.51,104.41c.39,1,.72,1.67,1,2.4a80.42,80.42,0,0,1,3,12c-2.22-2.37-4.56-4.58-7-6.9l-.35-.92c-.85-2.32-1.79-4.6-2.7-6.63C386.56,104.32,388.59,104.33,390.51,104.41Z"/><path class="cls-6" d="M379.73,114.6l5.25-1.79c0,3-.07,5.79-.12,8.48a17.71,17.71,0,0,1-3.09-.38c-2.79-.66-5.42-1.49-8.21-1.91C375.39,119.07,375.67,117.45,379.73,114.6Z"/><path class="cls-6" d="M396.62,123.4c2.6,7.08,5.78,11.64,4.43,16l-2.86.17a26.21,26.21,0,0,0-3.86-2.23,110.87,110.87,0,0,0,1.35-13.7Z"/><path class="cls-9" d="M496.62,396.47c-2.79,2.86-5.47,5.4-8.47,8q-1.93,1.11-3.9,2.12l-1.6-3.26c1.85-2.88,3.22-5.95,4.86-9,1.51-.83,3.25-1.85,4.73-2.76A53.76,53.76,0,0,1,496.62,396.47Z"/><path class="cls-9" d="M276.2,443.39c-2.62-1.62-5.77,1.12-11-5.57a33,33,0,0,0,5.1,0Z"/><path class="cls-9" d="M410.09,41.11c7,5.73,13.66,10.1,18.79,11.48l5.63-3.29c1.25,1.81,2.4,3.62,3.54,5.43.08,3.8-1.83,6.09,1.74,10.21,3.32,4.21,6.2,8.24,9.16,12.76-1.12,1.25-2.42,2.13-3.55,3.36-3.77,5.39-6.39.58-9.22-4.58s-6-10.89-8.94-7.75c1.65,2.53,3.34,5,4.87,7.6-3.09-.68-1.9,4-3.55,5a18.64,18.64,0,0,1-2.38-.57c-2-4.16-4.16-8.25-6.63-12.3l-.94-1.55a24.08,24.08,0,0,0-.49-5.67c3.88-5.33-3.41-11.68-6.63-15.89A15.67,15.67,0,0,0,410.09,41.11Z"/><path class="cls-9" d="M387.52,112c2.42,2.32,4.76,4.53,7,6.9l.33,1.24c-3.3.25-6.7.84-10,1.19.05-2.68.16-5.43.12-8.48Z"/><path class="cls-9" d="M452.08,106.29l.75-.15c.56,2.27,1.22,4.91,1.67,7.21-1.3,2.15-2.81,4.27-4.23,6.34-.7-4.09-1.69-8.51-2.71-12.54Z"/><path class="cls-7" d="M259.88,143.46c1.37-1.61,2.92-3.07,4.29-4.66l1.67,4.22Z"/><path class="cls-7" d="M315,100A70.72,70.72,0,0,1,321,95.71a58.88,58.88,0,0,1,6.66-2l-.23-.93c3.78-4.69,6.68,2,11.76.2a18.54,18.54,0,0,1,.73,2.87c-4,1.7-6.28,3.81-10,3.79a66.41,66.41,0,0,0-13.74,4.78A31.1,31.1,0,0,1,315,100Z"/><path class="cls-7" d="M322.06,69.53c2.38-.59,4.76-1,6.87-1.33a31.55,31.55,0,0,1,4.71,3.1c5.45.76,9.12-.23,12.77-.76s7.24-.64,10,2.57l-.69,1.78a31.81,31.81,0,0,0-9.37-.49c-5.47.63-14.46-.07-22.9,1.48Z"/><path class="cls-7" d="M343.3,51.86c6.88-.14,12.16-1.11,19,0,2.52,1.24,4.58,2.67,6.95,4a71.38,71.38,0,0,1,6.7,4.1l-1.62,2.13c-2.33-1.2-4.77-2.08-6.84-3l-4.12.13-4,.36a69.49,69.49,0,0,0-13.08-.91,59.78,59.78,0,0,0-3.06-5.79Z"/><path class="cls-7" d="M377.61,50.08c7,0,9.21,2.1,10.49,4.43,6.67,5.82,12.48,8.28,24.07,14.38a123.11,123.11,0,0,1,4.92,12.06c-.57,1-1.29,1.68-1.86,2.66L411,85.47c2.16.45-.19-2-2.15-2.52-1.87.56-3.39,3-5.73,1.06-.73-1.35-1.8-2.8,1.92-5.89-.81-1.36-1.64-2.71-2.34-3.77a108.62,108.62,0,0,0-12.9-3.78,71.31,71.31,0,0,0-8.54-8.82l3.65-3.92A46.88,46.88,0,0,0,377.61,50.08Z"/><path class="cls-7" d="M425.31,95.15c.38,1,.73,1.9,1.17,3.19,3.28,2.9,6.66,6,9.73,9.27l.48,1.7c1.59,5.43,3.11,10.92,4.35,16.49-.21,5-.67,10.29-1.34,15.15H438a79.23,79.23,0,0,1-9,6.2c-2.92-3-5.76-6.12-8.64-8.75a25.45,25.45,0,0,0-1.73,2.78c.13,1.5.14,3,.2,4.5-2.21,6.51-6.68,3-10.09,3.8-1.11-1.7-2.53-3.63-3.72-5.23.45-2.43-1.17-3.76-4-4.9,1.35-4.31-1.83-8.88-4.43-16,4.25-1.12,8.26-2.48,12.25-3.87a44.74,44.74,0,0,1,3.1,5.32l5.49-.82c-.64-3.29-1.42-6.85-2.31-10.08a37.63,37.63,0,0,1-1.42-10.4l.91-.28c1.73-.85,3.16-2,4.89-2.82a40.77,40.77,0,0,0,.82-5.41A29.82,29.82,0,0,0,425.31,95.15Z"/><path class="cls-7" d="M458.74,103l4.12,9.18-8.35,1.17c-.45-2.29-1.11-4.94-1.67-7.21A34.35,34.35,0,0,0,458.74,103Z"/><path class="cls-10" d="M226.37,238.09c-.95-4.9-1.62-9.8-2.38-14.78l.33-1.41a20.69,20.69,0,0,1,2.48-2l5.14,1.49c-1.31,5.17-2.52,10.41-3.6,15.68A7.34,7.34,0,0,1,226.37,238.09Z"/><path class="cls-10" d="M418.62,66.92l.94,1.55c2.46,4,4.6,8.14,6.63,12.3-.91.76-1.85,1.91-2.77,2.66-2-.69-4.16-1.62-6.34-2.48a123.11,123.11,0,0,0-4.92-12.06C414.19,68.13,416.59,67.62,418.62,66.92Z"/><path class="cls-10" d="M440.05,97.8l1.11,3.51c-.19,1.93-.4,3.48-.46,5.34l-4.5,1c-3.07-3.31-6.44-6.37-9.73-9.27-.44-1.29-.79-2.24-1.17-3.19l.91-.3A52.32,52.32,0,0,0,432.76,89C435.37,91.91,437.71,95,440.05,97.8Z"/><path class="cls-8" d="M397.54,30.28a69.54,69.54,0,0,1,10.17,4.82c.88-2.05,2.21-3.94,3-6a114.34,114.34,0,0,1,11,11.16c3.08,2.16,4.07.94,7,2.77,1.72,1.56,3.17,3.25,4.54,4.49l1.24,1.8-5.63,3.29c-5.12-1.38-11.81-5.75-18.79-11.48a15.67,15.67,0,0,1,1.4,4.25c2.2,2.44,4.31,4.93,6.22,7.47,5.61,4.94,2.93,7.8.41,8.41a118.76,118.76,0,0,0-10.29-10.5l-2.26,1.77c-1.91-1.86-3.77-3.24-5.82-5-4.7-3.13-6.59-6.06-9-9.35a26.91,26.91,0,0,0-4.52-4.94,24.72,24.72,0,0,0-7.94-4.62c-.92-2.74,5.12-.61,5.63-1.37,4.07,1.63,7.86,3.06,11.87,5.06Z"/><path class="cls-4" d="M410.73,29.08l3.34-3.18A119.51,119.51,0,0,1,428.73,43c-2.9-1.83-3.89-.61-7-2.77A114.34,114.34,0,0,0,410.73,29.08Z"/><path class="cls-5" d="M283.59,496.09a117.92,117.92,0,0,1-11.38-4C275.27,493.54,274.34,489.49,283.59,496.09Z"/><path class="cls-5" d="M377,6.54a46.12,46.12,0,0,1,19,5.3,56.53,56.53,0,0,1,18.14,14l-3.34,3.18a112.61,112.61,0,0,0-21.09-15.41A102.57,102.57,0,0,0,377,6.54Z"/><path class="cls-8" d="M286.12,40.7c5.63-5.85,9.51-7.19,13.2-8.53C306.64,37.88,293.33,40.65,286.12,40.7Z"/><path class="cls-8" d="M347.89,475.73c-2.16-1-4-2.06-6.12-2.92,2.09-1.82,3-4.86,7.86-3.52,2.78.45,4.94.83,7.44,1.05C356.9,474.14,349.81,471.48,347.89,475.73Z"/><path class="cls-6" d="M198.82,307.36c0-2.53-2-3.62-3-5.61.29-2.27.42-4.54.85-6.78-1-3.08-1.73-6.48-2.58-9.8l2.09-2.79c-1.41-4.92.29-11.37.61-17.08l3-8.33c-.34,2.39,1.13,4.17,1.88,6.09-.82,6.49-1.5,13.27-1.89,19.68-.16,2.31-.33,4.74-2.18,12.27C197.84,298.13,200.24,299.48,198.82,307.36Z"/></g></g></g><g class="cls-2"><g class="cls-3"><g class="cls-3"><path class="cls-4" d="M185.27,28.53c-2.14-1.35-9.24,2.66-8.16-1.18,7.4-5.15,15.22-9.64,22.83-14.43C201.64,15.48,198.67,22.22,185.27,28.53Z"/><path class="cls-4" d="M143.06,153c-1.34,2.17-2.76,4.24-4,6.43L135.54,166c-2.3,4.43-4.82,8.72-6.84,13.49-3,5.45-6.77,11.19-9.28,17l-2.08,4.75c-4.22,8.14-7.35,16.87-11,25.34l-6.05,18.85-1.65,2.45c-1.24,6.37-2.78,12.65-4,19-1,2.1-2,3.61-2.9,5.14,0,3.73-.07,8,.18,11.75-1.06,6.35-2.44,13.25-3.38,19.62l.94.25c-.95,8-1.86,15.24-2.75,24.53-.91,8.64-1.78,16.75-2.38,24.59C82.84,365.56,82,378.11,83,387.88c.06,1.3.29,2.32.44,3.45l.33,2.2,0,.38a1.21,1.21,0,0,0,.13.67l.82,2.51.41,1.26.21.63.05.16-.51-1.33v0l0,.05,0,.11.15.43,1.22,3.42c3.12,9.09,4.63,16.55,6.21,22.11l-2.83.5a71.74,71.74,0,0,0,4.4,12.08l2.65-1.14a39.38,39.38,0,0,0,8.65,10.91c.88.9,2.1,1.73,3.11,2.62a26.7,26.7,0,0,0,3.41,2.58l3.63,2.54,4,2.39a75.69,75.69,0,0,0,6.58,3.84c2.21,1.22,4.39,2.46,6.77,3.62,5.75,4.8,8,5.57,9.49,5.75s2.08-.57,3.95.24c4.08,2.59,8.56,4.5,9.54,5.4.27.11.16-.07.29.07a10.57,10.57,0,0,0,2.39-.76c3.35-.86,5.26-3.53,6-6.61.8-8.89-3.68-15.58-8-20.88a82.72,82.72,0,0,0-7.16-7.69,32.51,32.51,0,0,0-8.81-6.32,88.06,88.06,0,0,0-11.06-4.4,36.48,36.48,0,0,0-8.16-1.65c-3.14-.42-6.43,1.57-8.48,4.32-2,3-1.58,6.8-1.27,10l.49,4.83.28,5v4.71a28.86,28.86,0,0,1-.23,4.45c6.49,9.85,11.59,22,17.46,32.54-3,.53,2.9,8.57,4.59,13.8l2.91,5.05c.54,1,.92,1.53,1.3,2.12l1.11,1.78A82,82,0,0,0,149.29,527a124.36,124.36,0,0,0,12.13,10.65,146.3,146.3,0,0,0,22.64,14.69,98.85,98.85,0,0,0,11.78,5.31l2.9,1,3.6,1.15,7.18,2.3c6.39,2.45,12.67,4.85,19,6.92,6.51,1.72,13.6,3.25,20.05,4.33A178.63,178.63,0,0,0,267.45,576,177.53,177.53,0,0,0,287,574.8l3.11,0c8.67-.28,18-.88,26.57-1.56,9.8-.61,19.6-1.46,29.24-2.71,6-.06,11.42-.33,17.42-.78,7.14-4.4,19.49-5.12,28.24-6.25a296.13,296.13,0,0,0,45.39-14c5-3.34,10-6.79,14.18-10.17a14.58,14.58,0,0,1,3.83,2.21c14.09-7.42,27.86-14.75,41.07-22.88l-2.28-5.11c8.9-7.1,9.63-11.45,11.53-13.81A176.12,176.12,0,0,0,519,488.54c14.79-10.66,20.39-17.65,20.73-23.26A66.49,66.49,0,0,0,544.32,452a44.35,44.35,0,0,0,1.15-6.9,74,74,0,0,0,.55-7.63,57.61,57.61,0,0,0,1.09-18.86c-.54-4.39-1.86-6.49-3.08-6.17-.54-3.2-1.13-5.88-1.93-8.91a58.75,58.75,0,0,0-7.73-17.42c-1.71-4.15-3.94-5.93-5.64-6.4-1.68-.62-2.6.09-3.45-.1a85.39,85.39,0,0,0-15.54-7.39,173.15,173.15,0,0,0-24.25-7c-6.93-1.87-9.89-1.83-12.18-1.64a45.4,45.4,0,0,1-8.08.49c-2.13-.48-4.21-.84-6.27-1.2l-3.16-.43c-1-.17-2.59-.2-3.87-.33l-5.26.37c-5.49,4.08-18.42,3.94-26.5,3.45-2.23,0-4.37.11-6.68,0-5.06,3.44-17,1.83-23.77-.05a60.8,60.8,0,0,1-10.32,1.56,88.46,88.46,0,0,1-8.75-3.18l-4.31-1.77-4.41-2.26a69.36,69.36,0,0,1-8.69-5.11L348.93,352a43.9,43.9,0,0,1-4.56-3.66c-2.71-2.3-5.27-4.69-7.66-7.13l-1.77-1.84-.78-1-1.4-1.75-1.4-1.75-.7-.88-2.17-2.87-.58-.9a74.39,74.39,0,0,1-4.41-7.64,66,66,0,0,1-8.11-10.45,74.23,74.23,0,0,1,0-36.18,100.47,100.47,0,0,1,8.77-24.49A166.66,166.66,0,0,1,335,233.13c2.43.13,4.52,1.06,7.1,1-1.66,3.29-2.67,5.54-3.93,8.6-1.2,2.83-2.31,5.86-3.38,8.91-.73,1.38-1.07,2.16-1.77,3.6a32.23,32.23,0,0,0-8.12,4.7c-.69,1.59-1.28,3.4-1.89,5.16s-1.2,3.64-1.75,5.81a79.24,79.24,0,0,0-2.65,17c.71,7.86,2.2,16.89,5.24,24.7A60.54,60.54,0,0,0,329,323.11c1,1.47,1.95,2.86,2.92,4.14l.73.94,1.71,2.24.13.11.25.21,1,.8,2.24,3.68.6,1,1.52,1.75q1.55,1.75,3.22,3.47t3.44,3.39l1.79,1.65,1.56,1.22c2.06,1.58,4.19,3.14,6.35,4.66a95.35,95.35,0,0,0,30,10,126.05,126.05,0,0,0,16,.37c8.09-3.92,17.88-2.82,25.48-3.64l.23-2.69,6.69-.39,13.38-.6c2.24-.1,4.07-.09,6.16-.13,1.83.07,3.47,0,5.29.21,9.55,1.06,14.43-1.4,18.17-2.86A148.23,148.23,0,0,1,494.21,355a92,92,0,0,1,10,3.77c2.47-.07,4.29-.06,6.11,0a109.44,109.44,0,0,1,20.38,10.09,37.48,37.48,0,0,1,11.62,12.46,41.33,41.33,0,0,1,7.76,6.58,89.12,89.12,0,0,1,4.17,18.63,131.83,131.83,0,0,1,3.18,19.91c.07,2.68.05,5.36-.08,8.06l1.72.25a68.53,68.53,0,0,1-1.57,11.17c-.51,3.59-1.85,6.88-2.85,10.09l-1.61-.64a75.9,75.9,0,0,0-2.84,7.09,36.88,36.88,0,0,0-1.41,4.53c-.3,1.3-.39,2.53-.73,3.85a27.71,27.71,0,0,1-1.93,4.52,82.22,82.22,0,0,1-10.68,14.26,11.23,11.23,0,0,0,5.24-1.38,22.18,22.18,0,0,0,2.8-1.66,29.69,29.69,0,0,0,2.46-2.26c3.35-3.16,5.35-7.46,5.6-10.56,1.18-1.73,1.71-3.21,2.5-4.56l2.62-2.88,2.2-3a47.77,47.77,0,0,0,4.27-6.55c.45,10.19-3.33,18.92-8.41,25.81S543.81,495.31,538.42,502c-6.93,6-10.17,10.81-13.94,15.37a33.07,33.07,0,0,1-6.7,6.44,38.4,38.4,0,0,1-11.11,5.52c-15.13,6.77-24.3,12.07-25.43,16.13-15.42,8.52-31.31,17-48.36,22.94-4.8-1.92-10,3-17.32,4.29-15.34,7.86-31.75,10.29-47.94,11.74s-32.46,2-49.33,6.1c-14.78-2.17-22.48.45-36.45,1.69a130.17,130.17,0,0,1-29.46-4c-8.58,1.32-16.32-1.54-24.28-5.14s-16.34-8-27.06-10.07c-4.48-1.64-8.61-3.09-12.45-4.89s-7.65-3.75-11.35-5.81c-5.51-2.61-12.57-5.71-18.14-8.94s-9.61-6.42-9.27-8.41c-4.37-3.41-6.11-6.55-8.13-10a65,65,0,0,0-9.45-12.26,38.28,38.28,0,0,1-3.94-4.63c-1.32-1.89-2.61-3.87-3.88-5.89-2.53-4-5-8.26-7.26-12.32-4.6-8.12-8.65-15.6-12.4-19.85-1.95-7.16-6.3-16.19-8.54-25.63-1-4.52-2.13-8.75-3.06-13.3s-1.65-9.25.19-13.39,6-6.6,10-7.76c4.24-.55,8.35.46,12,1.44,5.22.93,12.84,3.52,20.79,7.26,6.39,2.75,11.79,8,16.83,13.07A111.71,111.71,0,0,1,166,457.94a41.76,41.76,0,0,1,5.27,12.23c-.91-1.86.83,5.25.18,9-.17,4-2.5,7.53-3.65,10.72.4.55-.74,2.16-3.33,3.15a16.71,16.71,0,0,1-2.2.51c-.83,0-1.71,0-2.62,0-.78-.2-1.54-.44-2.29-.69a24.72,24.72,0,0,1-2.29-1.19l.11-1a15.41,15.41,0,0,0,2.3-.89c.71-.42,1.15-.6,2.16-1.24a15.09,15.09,0,0,0,4.9-4.56c-.68.14-1.33.29-1.94.46l-2,.21c-1.22,0-2.86.13-3.27-.23a18.25,18.25,0,0,1-2-.81,17.71,17.71,0,0,1-2.6-1.5,24.47,24.47,0,0,1-2.84,2.35A83.9,83.9,0,0,1,136.94,483c-2.53-2.28-5.44-5.12-8-7.63-6.11-4.18-7.72-4.31-9.58-3.77-1.69.46-3.37,1.73-7.72-.5a84.59,84.59,0,0,1-15-17.27c-6-5.16-8.88-11-10.91-17.12s-3.32-13.28-7.32-22.37c.78-2.86,1.61-5.3,2.49-7.66l-2.18-5.55-.28-.68v0l.4,1h0v0l0-.07-.05-.13-.1-.26-.42-1.05-.84-2.09-.42-1a5.38,5.38,0,0,1-.17-.56l-.31-1-.39-1-.41-1.66c-.88-7.18-.68-15.76-.05-24.68-2.78-5.35-2.21-22.3,1.87-22l3.67-29.76c-.66-6.23-1.58-12-2.1-18.29-4.05,3.25-3.91-9.88-1.36-18.51,1.49-1.43,3.16-2.77,4.64-4.16l1-12.3c1.68-3.19,3.61-6.94,5.41-10,1-3.46,2-7.51,3-10.94L97,225.38A211.58,211.58,0,0,0,102.61,203l-3.2-1.77c.52-4.52,1-8.42,1.26-12.46,5.87-14.8,13-23.84,20.47-35.34a29.45,29.45,0,0,1,6.71-7.35c1.71-1.24,2.89-1.51,3.8-1.33,1.82.37,2.59,2.51,4.27,2.39,2.62-3.83,5-7.88,7.81-11.56,2.82-.55,5.81-1.65,8.94-2.61,1.84.58.92,3.38-1.27,7.05S146.17,148.62,143.06,153Z"/><path class="cls-4" d="M44.65,192.24c-2.66,13.25-5.26,19.35-9.22,24.23C36.39,205,40.12,189.73,44.65,192.24Z"/><path class="cls-5" d="M45.86,262.33c.34,2.88.37,6.3.59,9.78a204.47,204.47,0,0,0-5.1,34.83l-.8,8.65c-.23,2.73-.52,5.49-.89,8.34-.74,5.69-1.79,11.57-3.21,17.81,5.31,11.07,8.23-6.49,11.15.11,2.44,3.79-.51,11.5,1,18.23l.95.18c4.69,7.25,6.32,7.38,7.8,7.65a133.14,133.14,0,0,0,2.27,20.5,79.52,79.52,0,0,0-2.51,16.52c-2.64-1-4.2-5.2-5.15-9.18s-1.56-7.59-3.52-7.68c-.9-4.51-1.61-8.43-2.17-13a66.35,66.35,0,0,0-.17,30.41l.46,2L47,409l1,3.18,1.1,3.19c.32.92.65,1.83.92,2.81C51.22,422,52.21,426,53.18,430c-.18,3.84-.23,8.52,0,12.74a57.2,57.2,0,0,1-5.65-6c-1.51-3.91-2.78-8.21-4.07-11.46-.8-2.63-1.55-5.14-2.44-7.28l-1.68-4.45-.78-2.1-.39-1.08-.44-1.5c-.57-2-1.17-4.07-1.64-6L35,397.52c-.56-3.47-1.13-7-1.38-10.32-.66-6.45-1-11.32-1.06-16.83-1.83-3-3.6-5.4-5.23-7.81-.52-7-.93-13.22-1.15-20l4.41-20.45c1.84-9.15,1-16.72,1.32-25.3.26-2,.5-3.93.88-5.88l3.77-15.55c1.2-5.19,2.79-10.22,4.07-15Z"/><path class="cls-6" d="M109.78,95.17a357.48,357.48,0,0,0-23.24,39.37c-2.73,5.44-5.57,10.63-8,16l-7.18,16.29c-.93,1.77-1.68,3.61-2.48,5.43-2.8,2.13-5.78,4.19-8.78,6.3-6.56,13.21.77,8.93-1.16,17.62-1.75,5.39-3.85,10.83-5.49,16.48l-5,17.12c-1.81,4.93-3.12,9.31-5,14.92-2.25,1.89-5,4.39-7.53,7-1.7,7.46-3.76,15.56-4.51,22.71s-.56,13.26,1.39,16.57c-.38,1.95-.62,3.91-.88,5.88-.35,8.58.52,16.16-1.32,25.3l-4.41,20.45c.23,6.77.63,13,1.15,20a208.29,208.29,0,0,0-.07,24.11c1.89,5.36,5.16,5.38,6.35.53.25,3.35.82,6.85,1.38,10.32L36,402.81c.47,1.94,1.07,4,1.64,6l.44,1.5.39,1.08.78,2.1L41,418c.89,2.14,1.64,4.66,2.44,7.28l-9.11,1.48a60.39,60.39,0,0,0,2.59,18.85A88,88,0,0,0,48.21,470c5.42,8.25,12.37,15.38,19.44,21.77l5.4,4.64c1.81,1.53,3.64,2.84,5.46,4.3,3.65,3,7.29,5.52,10.92,8.34a128.5,128.5,0,0,0,11.76,7.52c3.83,2.24,7.45,4,11.53,6a126,126,0,0,0,27,9.07,77,77,0,0,0,18.12,1.67,42.07,42.07,0,0,0,5.35-.42,37.08,37.08,0,0,0,4.89-.81,54.93,54.93,0,0,0,7.45-2.25c9.66-4,15.46-10.51,19.49-15.71a36.63,36.63,0,0,1-15.14,16.57,45.38,45.38,0,0,1-12.72,4.78,64.17,64.17,0,0,1-9.49,1.05l-4.54,0c-1.4-.05-2.67-.17-4-.27a101.41,101.41,0,0,1-25.23-5.82,194.65,194.65,0,0,1-18.81-8C94,516.84,82.42,510.78,71.77,502.8A133.23,133.23,0,0,1,43,474.46l.9-.37a87.78,87.78,0,0,1-10.77-21.44A157,157,0,0,1,28,433.23c-.55-2.57-1.1-5.09-1.58-7-.25-1.14-.51-1.9-.75-2.77l-.18-.64-.09-.32,0-.16,0-.08-.59-1.57L24,418.5a132.64,132.64,0,0,1-3.49-13.14L19.37,399l-.85-6.12c-2.94-17.75-3.73-31.53.89-35.44.39-5.54.93-10.91,1.51-16.2-.14-2.06-.3-4.11-.26-6.12,1.12-7.7,2.42-14.46,3.53-20.72l-4.51-1c.63-18.41.11-24.24-.33-30a472.22,472.22,0,0,1,16.09-66.89c4-4.88,6.56-11,9.22-24.23,9-21.39,19.29-42.15,31.8-61.64s26.17-38.17,42.29-54.88C115.54,82.49,112.51,88.39,109.78,95.17Z"/><path class="cls-7" d="M19.34,283.36c.44,5.8,1,11.63.33,30l4.51,1c-1.1,6.26-2.41,13-3.53,20.72,0,2,.12,4.06.26,6.12-.58,5.29-1.12,10.66-1.51,16.2-4.62,3.91-3.83,17.68-.89,35.44l.85,6.12,1.16,6.33A132.64,132.64,0,0,0,24,418.5l.67,2.15.59,1.57,0,.08,0,.16.09.32.18.64c.24.87.5,1.62.75,2.77.49,1.94,1,4.47,1.58,7a157,157,0,0,0,5.17,19.42A87.78,87.78,0,0,0,43.9,474.09l-.9.37A133.23,133.23,0,0,0,71.77,502.8c10.65,8,22.18,14,33.31,19.58a194.65,194.65,0,0,0,18.81,8,101.41,101.41,0,0,0,25.23,5.82c1.34.11,2.61.22,4,.27l4.54,0a64.17,64.17,0,0,0,9.49-1.05,45.38,45.38,0,0,0,12.72-4.78A36.63,36.63,0,0,0,195,514c-4,5.21-9.83,11.76-19.49,15.71a54.93,54.93,0,0,1-7.45,2.25,37.08,37.08,0,0,1-4.89.81,42.07,42.07,0,0,1-5.35.42,77,77,0,0,1-18.12-1.67,126,126,0,0,1-27-9.07c-4.08-1.91-7.69-3.72-11.53-6A128.5,128.5,0,0,1,89.43,509c-3.63-2.82-7.27-5.34-10.92-8.34-1.82-1.47-3.65-2.77-5.46-4.3l-5.4-4.64c-7.08-6.39-14-13.52-19.44-21.77a88,88,0,0,1-11.32-24.39,60.39,60.39,0,0,1-2.59-18.85l9.11-1.48c1.29,3.25,2.56,7.55,4.07,11.46a83.79,83.79,0,0,0,3.27,17.17c2.19,5.46,3.63,6,4.57,6.2s1.92-.16,4.38,2.92a90.13,90.13,0,0,0,18.86,21.38c3.69,3.37,7.66,5.94,11.55,8.8,4,2.44,7.95,5.23,12,7.32,4.12,2.26,8.14,4.49,12.24,6.45s8.52,4,13.15,5.84c5,1.13,11,3.13,18.35,4.52a55.9,55.9,0,0,0,12.32,1,42.1,42.1,0,0,0,6.64-.84,24.8,24.8,0,0,0,5.16-1.72c6.86-1.81,12-7.27,14.53-12a29.22,29.22,0,0,0,4.86-14.27,21.07,21.07,0,0,0-1.37-9.31c-.16-2-.36-4-.48-6.45-.06-1.08-.09-2.68-.1-4v-4.95l-.06-1.18-.84-4.1-.42-2-.21-1-.72-1.94-2.91-7.79L180.89,443l-.72-1.9-.36-.94-.18-.47A7.69,7.69,0,0,0,179,439l-20.26-21.15a4.39,4.39,0,0,0-2.34-1.54l-2.23-.91-4.47-1.82-9-3.66a9.7,9.7,0,0,0-2-.74l-1.58-.48-3.18-1-3.21-1-2.17-.55-4.14-1-3.35-.74a104.64,104.64,0,0,0-11.87-1.42l-3.79-.17c-7.62,1.25-13,1.51-19.28,2.63-3.25.36-6.81.68-10.62,3.5a30,30,0,0,0-9.14,12.17c-2.3,6.45-2,13.37-1.28,20.07a14.21,14.21,0,0,0-.48,9.26,41.1,41.1,0,0,0,1.56,4.7c.62,1.6,1.38,3.66,1.94,4.94l3,8.55c1.08,3.17,2.18,6.55,3.2,10.55a25.13,25.13,0,0,1,3,2.87C85.62,492.81,90.91,507.8,96,515.53c2.22,6,4.2,11.47,6.54,17.41a108.64,108.64,0,0,0,13.33,18.94,169.64,169.64,0,0,0,24.63,19.66l2.86,2.07a186.11,186.11,0,0,0,32.7,19.8,76.75,76.75,0,0,0,7.75,3l3.36,1.06,2.39.62a67.61,67.61,0,0,0,7.63,1.43c4.42.56,7.87.57,13.73,1.58,16.61,7.05,21.1,5.45,28.26,7,17.23,5.69,23.46,5.95,29.16,6.59,4,.33,8.28.49,12.43.49l10.72-.09c7.18-.11,14.37-.22,21.45-.46,3.94-1.06,7.31-2.93,12.47-3.17l6.44-.31,18.74-.38c7.69.19,22.8.82,33.93-3.33a302.92,302.92,0,0,0,38.12-7.15c13.53-5.11,23.22-8.54,36.74-15.48,4.36-2,8.57-4.45,12.85-6.82s8.06-4.77,12.29-7.3c13.33-6,21.21-10.74,27.79-15.29,3.3-2.2,6.28-4.42,9.49-6.73s6.64-4.71,10.84-7.52a205.17,205.17,0,0,0,24.43-22.83c3.76-3.64,7-7.89,10.22-11.74,3-4.28,6.09-8.19,8.52-12.77,3.23-2.94,6.51-11.48,10-18.69L589,468l2.23-7c1.58-4.53,2.12-8.93,2.87-13.07a102.32,102.32,0,0,0,1-21.53,95.26,95.26,0,0,0-7-32c-3.26-10.89-8.3-22.29-15.09-31.3a78.46,78.46,0,0,0-14.22-16.7c-1.73-1.73-3.29-3.3-4.8-4.59s-3-2.35-4.23-3.24a51.84,51.84,0,0,0-6.19-3.61,72.14,72.14,0,0,0-9.17-3.09l-.91,1.48a194.56,194.56,0,0,0-27.2-9.39,29.88,29.88,0,0,1-3.55,0c-5.63-1.78-12-3.39-17.83-4.72-2.73-.11-4.79-.14-6.87-.07a127.28,127.28,0,0,0-23.25-.42c-4.16-.27-8.62-.28-12.39-.2-5.68.63-11.79,1.53-17.82,2.14-11.38.53-22.5.23-32.32-2.18,6.83.5,12.71-.71,17.87-1.38s9.73-.89,14.66.69c5.94-.43,12-1.33,17.74-2,3-.73,6.22-1.29,9.49-1.75a76,76,0,0,1,10.57-.54,97.05,97.05,0,0,1,19.78,2.54c2.45-1.2,4.9-2.27,7.43-3.4,4.71.89,8.73,1.74,13.37,2.88,3.66-3.7,12.72-.27,20.13,2.09,3.09,0,5.56-.11,8.07-.14a135.46,135.46,0,0,1,24.5,9.8,54.24,54.24,0,0,1,7.36,8.19,97.55,97.55,0,0,0,9,9.89c2.69-.14,4.1-3.39,7.7-3.22,1.82,0,4.23,1.18,7.38,4.19s6.76,7.78,10.45,15.38a170.69,170.69,0,0,1,13.7,46.39,149.87,149.87,0,0,1,1.55,23.83c-.06,4-.29,8-.73,12S611,452.75,610.15,457c-.11,10.66.92,19.58-9.05,37.33-.73-1.1-2.31.94-4.14,4-2,2.86-4.38,6.67-6.27,9.52-5.62,7.83-8.75,12.67-12.3,17.16-3.48,4.69-7.43,9-15,14.9-2.55,1.59-4.4,2.85-6.37,3.94-3.68,4.76-5.18,6.88-6.48,8.78a23.07,23.07,0,0,1-5.65,5.68c15-7.3,16-10.76,20.9-14.44,1.79-1.41,3.59-3,5.36-4.65A175.81,175.81,0,0,0,589,523.48a183.89,183.89,0,0,1-16.87,17.2c-.55,3.69-1.28,7-2.07,10.34-3.1,2.5-6.23,5.16-9.33,7.34-18.39,10.77-27.46,14-37.16,17.42l-6,3.39c-5.44,4.49-10.36,8.47-15.78,12.55-1.83.73-3.72,1.3-5.51,2-4.51,2.92-8.43,5.65-14,8.9-6.73,3.36-13.63,6.15-19.81,8.73a24.34,24.34,0,0,1-3.28,2.26l-10.09,3.68-10.17,3.25c-5.69,1.17-11.38,2.05-17,2.78l-.57-5.37c-2.15-.28-4.25-.37-6.35-.47l-3.45.81c-10.77,4.39-21.74,8.09-32.69,11.5a13.23,13.23,0,0,0,3.43,1.28c-13.82,1.82-26.72,2.63-39.48,3.38l-19.59,3.77c-11.24-.09-23-.4-34.51-1.07-3.07.33-5.51.67-8.8.92-3.83.24-7.51.38-10.86.33a138.87,138.87,0,0,1-18-1.25c-10.46-1.47-18.4-3.76-24.44-6.69-12.35-3.4-23.14-7.18-33.94-11l-8.31-2.67-3.15-.71-4.46-1.24c-3-.83-5.65-1.81-8.6-2.91a177.71,177.71,0,0,1-16.77-10.24c-5.76-1.66-12-4-15.9-4.4a243.56,243.56,0,0,1-26.38-22.06,142.43,142.43,0,0,1-22.41-25.38l-2.77-4.26-1.69-2.78L79,537.43l-6.28-10.85c-4.16-7.34-8.26-14.88-12.27-23-2-4.07-4-8.23-6-12.8a157.19,157.19,0,0,1-5.82-15.36c-1.22-3.55-2.26-7.22-3.3-10.6a10.72,10.72,0,0,0-.45-1.28l-.63-2.07L43,457.21c-.93-2.83-1.76-5.68-2.6-8.62a65.41,65.41,0,0,1-2.48-19.49,63.7,63.7,0,0,1,1.58-10.94A52.5,52.5,0,0,1,46,405.06c2.66-3.67,5.89-7.45,8.55-9.32,4.74-4.45,8.35-6.08,12.84-8.37a174.62,174.62,0,0,1,17.74-7.28l9-2.17,2.93-.76a15.55,15.55,0,0,1,3.24-.62l3.68-.43c1.22-.14,3.33-.07,5-.12l2.6,0h1.95l1.09.15,9,1.34,4.51.67,1.13.17a4.1,4.1,0,0,1,1.48.39l4.61,1.83,18.44,7.32,9.23,3.66,2.31.92,2.65,2.85,5.29,5.69,21.21,22.81,10.63,11.43,1.33,1.43a7.44,7.44,0,0,1,.61.69l.15.49.59,2,1.17,3.94,4.71,15.8,2.36,7.93a5.54,5.54,0,0,1,.39,2.46l0,1.76.11,7.06.05,3.55c0,1-.11,1.41-.16,2.15l-.38,3.95a152.27,152.27,0,0,1-2.58,15A59,59,0,0,1,209,516.2a54.41,54.41,0,0,1-8.57,13,51.92,51.92,0,0,1-15.78,12.15c-1.79.79-3.55,1.64-5.42,2.35s-3.82,1.33-5.83,1.78a51.86,51.86,0,0,1-7,1.37,63.47,63.47,0,0,1-8.9.68,93,93,0,0,1-26.81-3.82,148.54,148.54,0,0,1-18.72-6.8c-5.56-2.41-10.76-5-15.32-7.33l-7.67-4.19c-2.54-1.36-5.1-2.83-7.71-4.53A149.49,149.49,0,0,1,50.41,496.2a115.66,115.66,0,0,1-13.89-17.72c-2.11-3.2-3.85-6.63-5.68-10-1.51-3.32-3.24-6.84-4.41-10.07a165.54,165.54,0,0,1-5.71-17.94c-1.27-4.84-2.33-9.16-3.12-11.74-.21-.84-.4-1.24-.58-1.81l-.26-.82-.06-.21,0-.1-.74-2-.28-.84-1.12-3.34-.3-.92-.49-1.68-.93-3.37L12,410.31l-.4-1.7-.25-1.32-.9-5.2c-.59-3.48-.82-6.6-1.2-9.92,1.61-10.64,2-14.34,1.5-16.8s-1.63-3.11-2.06-6.24c.6-10.45,1.8-20.35,3.16-29.86l4.13-26.77C17.07,303,17.69,292.79,19.34,283.36Z"/><path class="cls-4" d="M32.53,370.36c.11,5.51.4,10.38,1.06,16.83-1.2,4.85-4.46,4.83-6.35-.53a208.29,208.29,0,0,1,.07-24.11C28.93,365,30.7,367.35,32.53,370.36Z"/><path class="cls-8" d="M102.61,203A211.58,211.58,0,0,1,97,225.38l-5.27,16.43c-1,3.43-2,7.48-3,10.94a29.08,29.08,0,0,0,1,3.58c-2.17,2.32-4.5,4.63-6.42,6.47l-1,12.3c-1.48,1.39-3.15,2.73-4.64,4.16-2.55,8.64-2.69,21.76,1.36,18.51.52,6.33,1.44,12.06,2.1,18.29l-3.67,29.76c-4.08-.28-4.65,16.67-1.87,22-.62,8.92-.82,17.5.05,24.68l.41,1.66.39,1,.31,1a5.38,5.38,0,0,0,.17.56l.42,1,.84,2.09.42,1.05.1.26.05.13,0,.07v0h0l-.4-1v0l.28.68L81,406.64c-.88,2.36-1.71,4.8-2.49,7.66,4,9.09,5.22,16.28,7.32,22.37s4.87,12,10.91,17.12a84.59,84.59,0,0,0,15,17.27c4.35,2.23,6,1,7.72.5,1.86-.53,3.47-.41,9.58,3.77,2.51,2.51,5.42,5.35,8,7.63a83.9,83.9,0,0,0,12.92,1.53,24.47,24.47,0,0,0,2.84-2.35,5.54,5.54,0,0,0,1.68-.17,4.3,4.3,0,0,0,1.52-.43l1.25,1.4a5.42,5.42,0,0,0,.7.67l1.3.38a9.53,9.53,0,0,0,5.39,0,17.2,17.2,0,0,1-4.86,5l-2.19,1.51a17.85,17.85,0,0,1-2.42,1.17,24.72,24.72,0,0,0,2.29,1.19c.75.25,1.51.49,2.29.69.9,0,1.78,0,2.62,0a16.71,16.71,0,0,0,2.2-.51c2.59-1,3.73-2.6,3.33-3.15,1.15-3.19,3.48-6.74,3.65-10.72.65-3.78-1.08-10.89-.18-9A41.76,41.76,0,0,0,166,457.94a111.71,111.71,0,0,0-13.07-16.13c-5-5.05-10.44-10.32-16.83-13.07-8-3.73-15.57-6.33-20.79-7.26-3.62-1-7.73-2-12-1.44-4,1.16-8,3.71-10,7.76s-1.05,9-.19,13.39,2.09,8.78,3.06,13.3c2.23,9.44,6.59,18.47,8.54,25.63,3.75,4.25,7.8,11.73,12.4,19.85,2.31,4.06,4.73,8.27,7.26,12.32,1.27,2,2.56,4,3.88,5.89a38.28,38.28,0,0,0,3.94,4.63,65,65,0,0,1,9.45,12.26c2,3.41,3.76,6.56,8.13,10-.34,2,3.71,5.19,9.27,8.41s12.63,6.33,18.14,8.94c3.71,2.06,7.44,4.09,11.35,5.81s8,3.25,12.45,4.89c10.72,2,19.05,6.47,27.06,10.07s15.7,6.46,24.28,5.14a130.17,130.17,0,0,0,29.46,4c14-1.25,21.67-3.87,36.45-1.69,16.87-4.11,33.07-4.64,49.33-6.1s32.6-3.88,47.94-11.74c7.32-1.29,12.53-6.21,17.32-4.29,17-5.95,32.94-14.42,48.36-22.94,1.14-4.06,10.3-9.37,25.43-16.13a38.4,38.4,0,0,0,11.11-5.52,33.07,33.07,0,0,0,6.7-6.44c3.77-4.56,7-9.39,13.94-15.37,5.39-6.71,11.09-12.51,16.27-19.46s8.87-15.62,8.41-25.81a47.77,47.77,0,0,1-4.27,6.55l-2.2,3L554,469.23c-.78,1.35-1.31,2.83-2.5,4.56-.25,3.1-2.24,7.4-5.6,10.56a29.69,29.69,0,0,1-2.46,2.26,22.18,22.18,0,0,1-2.8,1.66,11.23,11.23,0,0,1-5.24,1.38,82.22,82.22,0,0,0,10.68-14.26,68.51,68.51,0,0,0,6.9-20l1.61.64c1-3.21,2.34-6.5,2.85-10.09A68.53,68.53,0,0,0,559,434.77l-1.72-.25c.13-2.69.15-5.38.08-8.06-.51-4.84-1.27-10.17-2.25-14.8-.28-2.09-.61-3.6-.92-5.11A89.12,89.12,0,0,0,550,387.92a19,19,0,0,0-5.48-2.83c-.62-1.21-1.39-2.22-2.27-3.75a37.48,37.48,0,0,0-11.62-12.46,109.44,109.44,0,0,0-20.38-10.09c-1.82,0-3.65-.06-6.11,0a92,92,0,0,0-10-3.77l.93-2.52c-2.88-2.12-6.47-4.07-9.53-6.06,3.22-.49,6.57-1.19,9.28-1.67,8.73,1.12,17.77,2,26.69,3.73s17.83,4.26,25,9.19c1.39,3.17,3.74,6,7,9.65a58.05,58.05,0,0,1,9.68,16.24L565,383c6.59,13.7,9.87,29.73,10.74,45.22-1.45,10.29,2.34,7.78,3.14,13.07-.1,2.52-.62,4.87-.94,7.3a53,53,0,0,1-1.47,7.71,87.78,87.78,0,0,1-4.68,20.6,77,77,0,0,1-4,9.84,87.44,87.44,0,0,1-4.29,8.54c-11.6,14.51-25.29,25.31-38.95,34.6s-27.52,17.23-41.25,24.9-27.64,15.31-42.63,21.34a317.83,317.83,0,0,1-47.13,15c-8.51,1.81-13,1.3-18.35,1.45s-11.63.91-24.07,4.34c-7,.83-14.61,1.7-21.59,2.31-25.19-.92-40.29.23-51.46-2.43-8.88.46-12.21,1-14.1,1.88s-2.26,1.52-5.17,1c-4.56-.69-8.38-1.45-12.84-2.39-16.37-5.55-20.74-4.77-27.06-6.18-15.52-7-18.25-5.35-22.9-7.22l-3-.95c-12.27-3.81-23.65-9.74-34.6-16.86-2.19-1.47-4.93-3.28-7.55-5.24a184.14,184.14,0,0,1-19.25-20.13,96.69,96.69,0,0,1-12.28-14.83c-3.48-5.41-6.49-10.59-9.53-15.85q-3.67-6.65-7.17-13.42l.73-.25c-2.56-5.93-5.42-12.28-8.18-19s-5.5-13.72-7-21.31c-1-5.3-2.22-10.75-3-16S84,429.33,86.62,424.87a15.87,15.87,0,0,1,5-5.28c2-1.32,4-2.64,6.31-2.8,4.5-.52,8.74.55,12.64,1.51,6.29,1.05,14.07,3.63,21.92,7a48.36,48.36,0,0,1,11.56,7c3.38,2.68,7.48,5.51,11.1,9.62a2.67,2.67,0,0,0,0,1.52,3.69,3.69,0,0,0,.32.73l.8.91c1.15,1.28,2.47,2.81,3.86,4.45a84.07,84.07,0,0,1,7.45,10.22,41.68,41.68,0,0,1,5.8,15.75,26.19,26.19,0,0,1-1.72,14.61,14.93,14.93,0,0,1-12.07,8.71A30.72,30.72,0,0,1,145.9,497a32,32,0,0,1-10.21-5.67c-9.52-2.32-19-6.08-28.23-10-1.1-1.6-2-3.32-3.46-5.35a95.79,95.79,0,0,1-11.44-8.53c.43-1.14,4-.62,1-4-2.71-2.1-4.54-4.15-6.53-5.68-1.69-1.74-3.39-3.08-4.9-4.44-3-2.75-6-5-9.54-8.77a117.06,117.06,0,0,1-3.73-16.74c-1.68-4.71-3.06-9.63-5.05-14.62-1-1.47-2.29-2.92-3.43-4.33-1-1.07-2.22-2.64-3.27-3.94a79.52,79.52,0,0,1,2.51-16.52,133.14,133.14,0,0,1-2.27-20.5c.06-6.71.33-14.17.7-21l.63-5.55,3-24.33L66,306.06c1.51-14.67,1.48-30.27,8-43.49,1.53-6.57,3.69-13.12,5.57-19.73s4.45-13,6.61-19.34c3.59-9.73,8.68-13.93,13.23-22.3Z"/><path class="cls-9" d="M48.4,388.06c.36,5.16.38,9.52,1.57,15.57C51.79,414,55.62,414,58.44,417.35c1.24,5.46,2.29,11.59,3.7,17.1A90.49,90.49,0,0,0,70,445.36l2.56-.82c3.57,3.76,6.57,6,9.54,8.77,1.51,1.36,3.21,2.7,4.9,4.44,2,1.53,3.83,3.58,6.53,5.68,3,3.35-.54,2.83-1,4A95.79,95.79,0,0,0,104,475.93c1.41,2,2.35,3.75,3.46,5.35,9.18,4,18.71,7.73,28.23,10A32,32,0,0,0,145.9,497a30.72,30.72,0,0,0,13.75,1.84,14.93,14.93,0,0,0,12.07-8.71,26.19,26.19,0,0,0,1.72-14.61,41.68,41.68,0,0,0-5.8-15.75,84.07,84.07,0,0,0-7.45-10.22c-1.39-1.65-2.7-3.17-3.86-4.45l-.8-.91a3.69,3.69,0,0,1-.32-.73,2.67,2.67,0,0,1,0-1.52c-3.62-4.11-7.73-6.94-11.1-9.62a48.36,48.36,0,0,0-11.56-7c-7.85-3.4-15.63-6-21.92-7-3.89-1-8.14-2-12.64-1.51-2.28.16-4.34,1.48-6.31,2.8a15.87,15.87,0,0,0-5,5.28c-2.59,4.46-2.18,10-1.43,15.25s2,10.71,3,16c1.52,7.59,4.29,14.63,7,21.31s5.62,13,8.18,19l-.73.25q3.5,6.79,7.17,13.42c3,5.26,6.05,10.44,9.53,15.85a96.69,96.69,0,0,0,12.28,14.83,184.14,184.14,0,0,0,19.25,20.13c2.62,2,5.36,3.77,7.55,5.24,11,7.13,22.34,13,34.6,16.86l3,.95c4.65,1.86,7.38.26,22.9,7.22,6.32,1.41,10.7.63,27.06,6.18,4.46.94,8.28,1.69,12.84,2.39,2.91.51,3.29-.23,5.17-1s5.22-1.42,14.1-1.88c11.17,2.66,26.27,1.51,51.46,2.43,7-.61,14.62-1.48,21.59-2.31,12.44-3.44,18.68-4.23,24.07-4.34s9.84.35,18.35-1.45a317.83,317.83,0,0,0,47.13-15c15-6,29-13.75,42.63-21.34s27.55-15.59,41.25-24.9,27.34-20.08,38.95-34.6a87.44,87.44,0,0,0,4.29-8.54,77,77,0,0,0,4-9.84,87.78,87.78,0,0,0,4.68-20.6A53,53,0,0,0,578,448.6c.32-2.44.84-4.78.94-7.3-.8-5.29-4.59-2.78-3.14-13.07-.86-15.49-4.15-31.52-10.74-45.22l-1.85.56a58.05,58.05,0,0,0-9.68-16.24c-3.22-3.67-5.57-6.48-7-9.65-7.12-4.92-16.1-7.46-25-9.19s-18-2.61-26.69-3.73c-2.71.48-6.06,1.18-9.28,1.67,3.06,2,6.65,3.95,9.53,6.06l-.93,2.52a148.23,148.23,0,0,0-16.34-2.38c-3.74,1.46-8.62,3.92-18.17,2.86-1.82-.2-3.46-.14-5.29-.21-2.09,0-3.92,0-6.16.13l-13.38.6-6.69.39c-5.41-.12-11-.13-16.71-.68-11,.44-21.68.55-34.05-2.23a71,71,0,0,1-19.6-7.56q-2.55-1.5-5.13-3.14a59.25,59.25,0,0,1-5.79-4.7l-2.9-2.69-1.43-1.4-.66-.67-.33-.4-2.71-3.3-1-1.18-.25-.29-.12-.15-1.47-1.94-.7-1.07-2.71-4.35a64.71,64.71,0,0,1-4.44-9.77,60.57,60.57,0,0,1-3.6-21.29c.21-14,4.28-25.23,8.4-34.37.7-1.43,1-2.22,1.77-3.6l2.19,1.6A108.14,108.14,0,0,0,330.2,277c.48.23.07,3.7.3,6.83s.74,5.62,1.94,3.56a47.57,47.57,0,0,1,4.31-18.61,55.19,55.19,0,0,1,6.3-10.5l6.32-8.28a123.11,123.11,0,0,0,7-10.92l.4-.68c1.52-2.31,3.17-4.3,4.68-6.41a71.23,71.23,0,0,1,5.52-5.74,87,87,0,0,1,16.64-7.87c2.73-.94,5.36-1.79,8-2.43s5.28-1.33,7.91-1.82a113.29,113.29,0,0,0-19.7,9.9c-6.48,4.18-12.67,9.08-17,15.51a31.93,31.93,0,0,0-2,2.87c-2.15,3.35-3.93,6.36-5.71,9.5s-3.52,6.46-5.12,9.92c-3.17,6.91-6,14.47-7.1,22.91a51.47,51.47,0,0,0,0,12.94,47.57,47.57,0,0,0,3.55,12.42,49.54,49.54,0,0,0,2.78,5.55l.37.67.09.17,0,.08,0,0,.53.71.17.25.69,1,1.35,2c1.27,2.38,4.64,5.88,7.49,8.86,7.86,6.38,13.67,7.31,18.61,7.74s9.31.23,15.9,1.62c19.62.2,37.19-4.85,56.62-7.89a56.29,56.29,0,0,1,9.36-4.81,198.08,198.08,0,0,1,22,1.19l2.52.45a218.75,218.75,0,0,1,22.43,9.91c3.82-1,7.15-2.25,11.14-3.05a179.44,179.44,0,0,0-16.87-8l1-2.52a29.88,29.88,0,0,0,3.55,0,194.56,194.56,0,0,1,27.2,9.39c6.67,3.35,13.89,7.22,20.34,12.55a13.14,13.14,0,0,1,5,.5A78.46,78.46,0,0,1,573,363.14c6.79,9,11.83,20.41,15.09,31.3a95.26,95.26,0,0,1,7,32,102.32,102.32,0,0,1-1,21.53c-.75,4.15-1.29,8.55-2.87,13.07L589,468l-3.17,7.09c-3.47,7.21-6.75,15.74-10,18.69-2.43,4.58-5.57,8.5-8.52,12.77-3.27,3.85-6.46,8.1-10.22,11.74-8.23,7.6-17.19,13.71-26.15,19.38-15.59,11.58-31.25,21.11-47.34,30.46-4.74,1.93-9,4-14.13,6-8.1,2.9-11.13,6.74-17.25,9.72a322.58,322.58,0,0,1-67.82,18.94,470.57,470.57,0,0,1-52.49,7.37l-.06,1-6.44.31c-5.76-.28-12.12-.65-18.44-1.24-6.07.32-12.6.28-18.85.29-3.23,0-6,.11-9.37.2s-6.63.19-9.59.4c-2-.71-4-1.54-6.57-2.59a225.4,225.4,0,0,1-23.07-1.32c-5.1-1.57-10.15-3.1-15-4.88-4.77-.36-8.09.66-13.57-1.23l-13.82-6.18a47.34,47.34,0,0,0-7.4-2.25c-2.38-.56-5.65-1.29-8.44-2.09a176.08,176.08,0,0,1-29.55-16.79,185,185,0,0,1-15.59-11.55l-1.29,1.17a131.2,131.2,0,0,1-15.91-13.61l.8-.55a89.7,89.7,0,0,1-14.5-17.46c-3.22-5.54-6.09-10.6-9.2-16.27-5.13-7.74-10.43-22.73-18.59-33.36-1.81-6.66-3.92-14.44-4.68-22.91l-.12-1.93c-3.64-9.71-5.52-24.86-3.76-35,2.55-4.32,7.26-7.84,11.53-9.94a11.32,11.32,0,0,1,4.52-3.59,34,34,0,0,1,3.88-1.51c8.39-.3,15.9,1,26.24,2.18l-.91-1,.83.06a98.93,98.93,0,0,1,10,1.32c3.56.81,7.57,1.64,15.53,4.08a26.43,26.43,0,0,1,3.67,1.54l4.39,2,4.4,2,2.2,1a4.7,4.7,0,0,1,2.31,1.62l10,10.72c3,3.44,7.79,7.64,7.64,9.73l2.79,7.66,1.32,3.68.4,1.93,1.42,6.72c1.5,6.69,3,10.34,4.15,14.5l-1.76-1.9c-2.08-4.53-4.27-8.44-6.31-13a87.68,87.68,0,0,1-3.19-8.24l-.85-2.47-1.83-4.3-1.89-4.4-.93-2.18-2.8-3L160,431.77l-2.79-2.94-1.39-1.47c-.46-.49-.94-1.06-1.33-1.13l-9.84-4.65c-4.74-1.93-8-2.87-10.4-3.7-2.56-.85-4.59-1.55-6.68-2.12s-4.35-1-6.57-1.45l-1.55-.28,1.64,1.67,2,.56a72.1,72.1,0,0,1,10.78,3.88l5.76,2.58a94.65,94.65,0,0,1,9.25,4.44l3.06,1.62c1,.63,2,.75,3.12,2.24l6.56,7.08,1.61,1.74c.51.57,1.2,1.21,1.24,1.57l1.12,2.55,2.21,5,2.14,5.56c.59,1.31,1.2,2.82,1.75,3.88,2.24,4.59,4.16,8.09,5.38,11.26a20.33,20.33,0,0,1,1.58,7.45c1,5.36,1.37,12.22-1.7,19.18a19.33,19.33,0,0,1-7.94,8.9,22.92,22.92,0,0,1-6.12,2.23,32.5,32.5,0,0,1-7.15.6c-9.51-.27-17.76-3.09-25.49-5.78-7.72-2.87-14.68-5.71-21.12-8.46-2.78-2.76-5.88-6.07-8.36-9.1a77.64,77.64,0,0,1-8.12-4.38l-3.65-3-3.36-3.19a69.33,69.33,0,0,1-6.41-6.83l-3,2.11A79.44,79.44,0,0,1,56.9,452.12,77.72,77.72,0,0,0,59.72,463c-2.47-3.08-3.32-2.8-4.38-2.92s-2.38-.74-4.57-6.2a83.79,83.79,0,0,1-3.27-17.17,57.2,57.2,0,0,0,5.65,6c-.18-4.21-.14-8.9,0-12.74-1-4-2-8-3.13-11.76-.27-1-.6-1.89-.92-2.81L48,412.22,47,409l-.5-1.61-.46-2a66.35,66.35,0,0,1,.17-30.41C46.79,379.63,47.5,383.55,48.4,388.06Z"/><path class="cls-4" d="M63.78,413.18c2,5,3.37,9.9,5.05,14.62a117.06,117.06,0,0,0,3.73,16.74l-2.56.82a90.49,90.49,0,0,1-7.85-10.91c-1.41-5.51-2.47-11.64-3.7-17.1l-1.37-12.43c1.05,1.3,2.23,2.87,3.27,3.94C61.49,410.26,62.74,411.71,63.78,413.18Z"/><path class="cls-4" d="M628.88,425a127.6,127.6,0,0,0-2-16.34,162.29,162.29,0,0,0-4.05-25.18A138.44,138.44,0,0,0,614,357.6l2.66-.62a135.82,135.82,0,0,0-11.15-19.73c-2.33-3.19-4.93-6.88-7.78-10.06a108.17,108.17,0,0,0-8.79-9.15,49.78,49.78,0,0,0-7.58-8.85c6.4,2.33,16,9.74,23.9,19.72,7.67,9.68,12.5,20.15,14.25,27.42,1.79,1.66,3.08,2.49,4.74,4.16,9.07,22.84,11.91,44.54,11.94,65.68a184.34,184.34,0,0,1-1.38,23.31q-1,6.54-2.12,13.06c-.81,4.36-2.18,8.78-3.38,13.22a17.57,17.57,0,0,0-6.35,2.14q1.88-7.2,3.47-14.29c.75-4.7,1.35-9.36,1.9-14A173.43,173.43,0,0,0,628.88,425Z"/><path class="cls-6" d="M410,197.28c-3.26-3.39,8.46-6.58,19-8.75s20.42-4,13.45-8.73c-1.4-1.35-2.1-2.8-3.53-4.15l0-3.67c3.66-.51,7.09-.93,10.84-1.3,2.3-.29,5-.33,7.49-.43a67.36,67.36,0,0,1,7.55,0l9-3.14c11.23,0,20.91.74,30.71,1.59,8.28,6.6,7.34,8.51,6.74,10.08-5.79-.71-11.54-1.4-17.42-2a22.57,22.57,0,0,1,1.31,6.88l-.25.73-1.57,4.37c7.45,1.54,15.39,3.45,22.59,5.5.27,1.07,1.19,2.33,1.46,3.4a45.81,45.81,0,0,1,3.43,8.57c-10.31-2.72-20.64-5-31.16-6.89l-3.28-.63,1.45-4.39-9-3.47c-4.79,0-9.47,0-14.82.41a77.15,77.15,0,0,0-15.59,2.58,55.23,55.23,0,0,1,6.64,7.59l-.07,1a40.3,40.3,0,0,1-3.57,5,61.35,61.35,0,0,1,9.73,2.13c.37,1.93,1.37,3.72,1.66,5.65l-.14.95a35.1,35.1,0,0,0-4.13.4,36.92,36.92,0,0,0-4.19.67c-2.9.57-5.8,1.21-8.54,1.89-10.91,1.75-15.4-1.23-18.11-3.26l-.37-4.61c-1.33-.7-2.05-1.53-3.4-2.22,3-2.2,6.16-4.41,8.7-6.39-.7-1-2.09-2.15-2.8-3.19a28.19,28.19,0,0,0,2.55-2.4C425.07,196.75,417.64,197,410,197.28Z"/><path class="cls-4" d="M450.31,162.17a118.09,118.09,0,0,1,13.36,2,83.44,83.44,0,0,1,10.19,3l-9,3.14a67.36,67.36,0,0,0-7.55,0c-2.52.1-5.19.15-7.49.43-3.75.36-7.18.78-10.84,1.3a46.39,46.39,0,0,0-7.29-2.76l9.14-3.59,4.43-1.68,2.3-.86C448.36,162.79,449,162.52,450.31,162.17Z"/><path class="cls-4" d="M551.93,233.29c-.83-2.14-1.72-4.33-2.75-6.56s-2.2-4.33-3.56-6.6l.9-1.49a20.13,20.13,0,0,0,4.68-1.07A64.88,64.88,0,0,0,554.37,206c-2.44-4.19-8.36-10.76,3.57-5.53,3.42,1.42,7.3,3.55,10.92,5.4l-3.48,4.44c1.26,1.8,3.53,4.42,5.43,6.69.91,1.07,2,2.44,3,3.76a25.61,25.61,0,0,1,2.15,3.43c1,2,.87,3.11-.93,2.94a16.09,16.09,0,0,1-4.07-1.23l-3.14-1.33-3.68-1.28a38.28,38.28,0,0,1,7,9.93c1,3.05,1.11,5.38.49,6.75s-2,1.83-4.16,1.13c-2-.72-5.37-2.43-9.89-4.56A55.08,55.08,0,0,0,544,240.63c-2.64-1.29-5.41-2.48-8.17-3.68-1.4-1.17-2.82-2.34-4.17-3.7A173.77,173.77,0,0,1,551.93,233.29Z"/><path class="cls-5" d="M135.92,147.13c-1.69.12-2.45-2-4.27-2.39-.91-.18-2.09.09-3.8,1.33a29.45,29.45,0,0,0-6.71,7.35c2.13-4.36,4.78-8.37,7.3-12.49s4.89-8.34,7.76-12.19c7.5-6.11,14.68-4.51,7.53,6.84C140.9,139.25,138.54,143.3,135.92,147.13Z"/><path class="cls-5" d="M112.36,97.79c.14,3,.3,6,.35,8.75-4,7.61-6.29,12.19-8.16,14.93s-3.24,3.63-4.52,4.21a11.83,11.83,0,0,0-4,2.25c-1.61,1.39-3.47,4-5.81,9.48-2.62,4.62-5.33,9.17-7.86,13.84l-11,15.59,7.18-16.29c2.45-5.36,5.3-10.55,8-16a357.48,357.48,0,0,1,23.24-39.37Z"/><path class="cls-5" d="M58.91,196.17c-.1,5.16,2.18,6.17,3.23,8.36S62.78,210,58.4,220c-4.35,8-6.61,6.23-9.94,9.77l5-17.12C55.06,207,57.16,201.56,58.91,196.17Z"/><path class="cls-5" d="M103.32,255.37c-1.14,4.46-2.55,8.85-5.26,12.76-1.22,5.67-2.59,11.34-3.6,16.46-.64,5.85-1.18,11.09-2,16.87a10.81,10.81,0,0,0-3,2.18l-.94-.25c.95-6.37,2.32-13.27,3.38-19.62-.25-3.74-.2-8-.18-11.75.93-1.53,1.86-3,2.9-5.14,1.22-6.37,2.75-12.65,4-19l1.65-2.45C101.27,249,102.13,252.43,103.32,255.37Z"/><path class="cls-5" d="M62.39,252.21c-1,10.06-1.87,18.16-3.3,24.05C58,282.21,56.54,286,54.92,287.5c.2-4.87.34-9.23.75-13.06s1-7.16,1.57-10C58.43,258.63,60,254.66,62.39,252.21Z"/><path class="cls-5" d="M15.94,312.51,11.8,339.27c-1.35,9.51-2.56,19.4-3.16,29.86l-2,7.33,1,7.72c.46,2.74,1,5.48,1.54,8,.38,3.32.61,6.43,1.2,9.92l.9,5.2.25,1.32.4,1.7.86,3.39.93,3.37.49,1.68.3.92L15.65,423l.28.84.74,2,0,.1.06.21.26.82c.18.57.37,1,.58,1.81.79,2.58,1.86,6.91,3.12,11.74a165.54,165.54,0,0,0,5.71,17.94c1.16,3.23,2.9,6.75,4.41,10.07,1.83,3.35,3.57,6.78,5.68,10A115.66,115.66,0,0,0,50.41,496.2a149.49,149.49,0,0,0,30.95,24.65c2.61,1.7,5.17,3.17,7.71,4.53l7.67,4.19c4.56,2.36,9.75,4.92,15.32,7.33a148.54,148.54,0,0,0,18.72,6.8,93,93,0,0,0,26.81,3.82,63.47,63.47,0,0,0,8.9-.68,51.86,51.86,0,0,0,7-1.37c2-.45,3.88-1.2,5.83-1.78s3.63-1.56,5.42-2.35a51.92,51.92,0,0,0,15.78-12.15,54.41,54.41,0,0,0,8.57-13,59,59,0,0,0,4.46-12.85A81.6,81.6,0,0,1,217,514.53a66.84,66.84,0,0,1-24.91,28.05,71,71,0,0,1-11.36,5.62c-2.13.66-4.16,1.5-6.33,2a53.94,53.94,0,0,1-7.62,1.66,72.9,72.9,0,0,1-9.5,1l-4.5.13c-1.47,0-2.6-.05-3.91-.09-5.28-.16-9.43-.64-13.49-1.08-8.9-2.52-15.78-5.06-22.2-7.43s-12.22-4.68-17.52-6.82c-11-4.71-23.29-9.78-36.12-20.06-.27-2.2,5-.67-.1-6-6-5.12-12.3-10.35-18.38-16.43a117.84,117.84,0,0,1-8.79-9.57,104.16,104.16,0,0,1-13.78-21,81.2,81.2,0,0,1-3.94-10q-.7-2.3-1.23-4.59a35.52,35.52,0,0,1-.67-4.1,23.78,23.78,0,0,1,.11-7.18c-.43-1.26-.76-2.12-1.11-3s-.71-1.92-1-2.54a20.1,20.1,0,0,0-1.68-3.21l-.36-.57-.09-.14,0-.07,0,0-.9-2.34-.36-.79-1.45-3.17c-.14-.32-.21-.41-.4-.92L4.7,420l-1.22-3.68-1.14-3.74-.54-1.89-.36-1.41A134.69,134.69,0,0,1,.37,379.54a65,65,0,0,1,1.73-7.72c.55-8.49,1.28-16.52,2.39-24.1.69-6.25.37-14.32.67-20.89S6.28,315.26,9.4,314l-.13-2-.06-2.41,0-4.93a73.75,73.75,0,0,1,.86-10.56c1.12,1.73,2.3-.24,3.73-3s3.36-6.27,5.55-7.71C17.69,292.79,17.07,303,15.94,312.51Z"/><path class="cls-5" d="M92.56,423.94a67.43,67.43,0,0,0,4.21,11.44l-2.65,1.14a71.74,71.74,0,0,1-4.4-12.08Z"/><path class="cls-5" d="M119.63,456.41c7.83,1.92,14.09,4,13.36,7.46-2.39-1.16-4.57-2.4-6.77-3.62A75.69,75.69,0,0,1,119.63,456.41Z"/><path class="cls-5" d="M158.64,474.56a11.3,11.3,0,0,0,4.07-6.5,18.11,18.11,0,0,0,.24-7,25.84,25.84,0,0,0-4.61-11.19,68.6,68.6,0,0,0-7.34-8.67c-2.71-2.65-5.6-5.42-9.26-7-1.66-.8-3.37-1.53-5.11-2.21a54.72,54.72,0,0,0-7.94-2.34c-2.71-.57-6.12-1-8.5,1.33a7.59,7.59,0,0,0-2.76,3.78,12.07,12.07,0,0,0-.25,4.82c.18,1.62.49,3.23.79,4.85l1,5.49a41,41,0,0,0,1.17,4.72c.59,1.89,1.34,4,2.16,6.15,1.67,4.36,3.72,9,5.8,13.51,4.21,9.11,8.82,18.06,13.17,26.25-.06,1.64,1,3.82,2.29,6.12l1,1.74c.33.53.51.72.76,1.1l1.35,2a11.42,11.42,0,0,0,2,1.17c7.36,8.48,18.13,17.29,28.79,24.23A132.63,132.63,0,0,0,193.78,546c2.66,1.23,5.24,2.25,7.68,3.11l10.61,3.46c14,4.55,27.47,8.69,40.52,11.16a119.45,119.45,0,0,0,18.85,2.2h4.38l4.29-.28,11.05-1c4.71,1.64,13.41.56,20.06.51,21.59-4,54.19-3.92,79.58-10.11a32.24,32.24,0,0,1,7.78-3.37c3.2-.93,6.82-1.86,10.52-2.88,7.46-1.9,15.25-4.26,20.44-7.43a111.39,111.39,0,0,0,19.09-8.6c2.86-1.51,6.24-3.56,9.45-5.48l9.53-5.8c12.57-7.72,24.67-15.16,37.62-21.77-1.91,2.35-2.64,6.71-11.53,13.81l2.28,5.11c-13.21,8.13-27,15.46-41.07,22.88a14.58,14.58,0,0,0-3.83-2.21c-4.18,3.38-9.13,6.83-14.18,10.17a296.13,296.13,0,0,1-45.39,14c-8.75,1.13-21.1,1.85-28.24,6.25-6,.45-11.39.72-17.42.78-9.64,1.25-19.43,2.1-29.24,2.71-8.62.69-17.9,1.28-26.57,1.56l-3.11,0A177.53,177.53,0,0,1,267.45,576a178.63,178.63,0,0,1-18.86-2.59c-6.45-1.08-13.54-2.61-20.05-4.33-6.34-2.06-12.63-4.46-19-6.92l-7.18-2.3-3.6-1.15-2.9-1a98.85,98.85,0,0,1-11.78-5.31,146.3,146.3,0,0,1-22.64-14.69A124.36,124.36,0,0,1,149.29,527a82,82,0,0,1-9.72-11.35l-1.11-1.78c-.38-.59-.76-1.16-1.3-2.12l-2.91-5.05c-1.69-5.23-7.57-13.27-4.59-13.8-5.87-10.55-11-22.69-17.46-32.54a28.86,28.86,0,0,0,.23-4.45v-4.71l-.28-5-.49-4.83c-.31-3.22-.78-7,1.27-10,2.05-2.76,5.34-4.74,8.48-4.32a36.48,36.48,0,0,1,8.16,1.65,88.06,88.06,0,0,1,11.06,4.4,32.51,32.51,0,0,1,8.81,6.32,82.72,82.72,0,0,1,7.16,7.69c4.37,5.3,8.85,12,8,20.88C163.9,471,162,473.7,158.64,474.56Z"/><path class="cls-5" d="M94.16,377.92l-9,2.17a174.62,174.62,0,0,0-17.74,7.28c-4.49,2.28-8.1,3.92-12.84,8.37-2.67,1.87-5.89,5.65-8.55,9.32a52.5,52.5,0,0,0-6.54,13.09c-.55-2.94,0-7.1,1.53-11.23a48,48,0,0,1,6.53-11.75,80.41,80.41,0,0,1,5.92-6.49c1.43-1.55,2.34-2.85,2.27-4.24,2-4.27,9.15-7.43,22.41-11L90,371.22A29.5,29.5,0,0,1,95.44,370l3.17-.4c.55-.06,1-.15,1.63-.19l2.25,0,4.47-.08a22.13,22.13,0,0,1,5.6.35l15.38,2.24,31.14,12.34,7.75,3.08,8.87,9.54,17.69,19.1L211,435l1.1,1.19.55.59a3.16,3.16,0,0,1,.13.41l.47,1.63.94,3.25,1.88,6.5,3.76,13,1.88,6.48.92,3.2v1.41c-.86-3.51-1.52.1-2.36,5.29l-.67,4.12-.37,2.13a9.46,9.46,0,0,1-.56,1.07,9.34,9.34,0,0,1-2.57,3.13l.38-3.95c0-.74.15-1.13.16-2.15l-.05-3.55-.11-7.06,0-1.76a5.54,5.54,0,0,0-.39-2.46l-2.36-7.93L209,443.69l-1.17-3.94-.59-2-.15-.49a7.44,7.44,0,0,0-.61-.69l-1.33-1.43-10.63-11.43-21.21-22.81L168,395.23l-2.65-2.85-2.31-.92-9.23-3.66-18.44-7.32-4.61-1.83a4.1,4.1,0,0,0-1.48-.39l-1.13-.17-4.51-.67-9-1.34-1.09-.15h-1.95l-2.6,0c-1.62,0-3.73,0-5,.12l-3.68.43a15.55,15.55,0,0,0-3.24.62Z"/><path class="cls-5" d="M109.1,575.16a243.56,243.56,0,0,0,26.38,22.06c2.86,2.66,5.95,5.18,9,7.74,9,4.27,12.63,4.44,14.81,4.52,2.36,0,3.41-.2,8.84,2.38,3,1.1,5.56,2.08,8.6,2.91l4.46,1.24,3.15.71,8.31,2.67c10.8,3.86,21.59,7.64,33.94,11,6,2.93,14,5.22,24.44,6.69a138.87,138.87,0,0,0,18,1.25c3.35.06,7-.09,10.86-.33,3.3-.25,5.74-.59,8.8-.92,11.52.67,23.27,1,34.51,1.07l19.59-3.77c12.76-.76,25.67-1.56,39.48-3.38,13.12-2,26.36-4.44,39.63-7.75,5.67-.73,11.35-1.6,17-2.78l10.17-3.25,10.09-3.68a24.34,24.34,0,0,0,3.28-2.26c6.18-2.58,13.08-5.37,19.81-8.73,7.1-1.21,12.79-2.31,18.81-3.19,7.34-3,9.29-6.95,16.84-10,7.77-4.2,15.74-8.78,23.78-13.78,2.77-1.64,5.78-3.69,8.74-5.64s5.94-4,8.8-6.09a21.43,21.43,0,0,0,1.45-5.55c3.1-2.18,6.23-4.84,9.33-7.34,4.5-3.14,9-7.15,13.55-10.92,2.27-2,4.53-4.26,6.82-6.44a93.33,93.33,0,0,0,6.88-7.1,147.6,147.6,0,0,0,24.34-44.93c.33-.94,1.07-2.76,1.32-3.73a17.57,17.57,0,0,1,6.35-2.14,125.06,125.06,0,0,1-3.66,14.5,122.53,122.53,0,0,1-5.34,14.83A93.81,93.81,0,0,1,613,517.24c-1.35,2-2.72,3.9-4.14,5.71s-3,3.32-4.45,4.84l-4.7,6.72-5.06,6.2c-3.43,4.27-7,7.9-10.37,11.41-5.6,7.59-16,14.15-24.21,20.44-6.4,4.35-12.81,8.56-18.44,11.9-12.71,7.23-25,13.48-36.86,19.23-6.1,2.92-11.06,5.41-18.67,8.82-7,3.31-14.19,6.05-21.34,8.81-2.05,1.17-4.17,2.15-7,3.6a287.89,287.89,0,0,1-34.86,8.56c-4.3,1-9.33,2.28-13.62,3.09-9,.5-15.21.81-19.88,1.3A50.08,50.08,0,0,0,378.79,640c-5.63,1-11.18,2-16.74,2.75-14.42,0-4.36,4.65-16.77,5.31-4-1.08-8.71-1.93-12.66-3-10.17.53-27.62-3.13-29.44,2a108.52,108.52,0,0,0-15.35-.78l-19.94.61C260,645.72,255.79,645,251,644.6s-10-.54-18.53-1.34c-.44-5-5-5.76-16.73-5.26-11.68-4.85-23.54-9.22-34.05-12.57L177,624l-6.25-2.11c-3.83-1.46-7.67-2.91-11-4.43-6.93-3-12.86-6-18.26-8.9-9.73-6.29-22.24-17.45-27-17.73-12.7-10.26-22.44-20-32.38-33.83-2.37-3.42-5.55-8.53-6.38-10l-4.14-7-9.29-15.22c-.47,4.19-3.11.62-5.85-4.84A127.83,127.83,0,0,1,50.1,504c0-3.79-1.4-8.49-3.42-14.49l-3.39-10.09A130.55,130.55,0,0,1,39.79,466l-1.85-9.75c-.6-3.55-1.18-7-1.4-10.3-.53-6.58,0-12.4,1.38-16.82a65.41,65.41,0,0,0,2.48,19.49c.84,2.95,1.67,5.79,2.6,8.62l1.34,4.27.63,2.07a10.72,10.72,0,0,1,.45,1.28c1,3.38,2.08,7.05,3.3,10.6a157.19,157.19,0,0,0,5.82,15.36c2,4.57,4,8.73,6,12.8,4,8.11,8.11,15.65,12.27,23L79,537.43l3.17,5.32,1.69,2.78,2.77,4.26A142.43,142.43,0,0,0,109.1,575.16Z"/><path class="cls-5" d="M519,488.54c1.83-2,3.49-4.46,5.64-6.77,2-2.37,3.89-4.79,5.81-7,3.62-4.45,6.62-8.2,9.27-9.51C539.36,470.89,533.76,477.88,519,488.54Z"/><path class="cls-5" d="M546,437.45c-1.48-7.28-2.37-20.39-2-25,1.23-.32,2.54,1.78,3.08,6.17A57.61,57.61,0,0,1,546,437.45Z"/><path class="cls-5" d="M542.1,403.51a98.32,98.32,0,0,1-9.19-16.5,27.09,27.09,0,0,0-7.63-7.43c.85.2,1.77-.52,3.45.1,1.7.47,3.93,2.25,5.64,6.4A58.75,58.75,0,0,1,542.1,403.51Z"/><path class="cls-5" d="M509.74,372.19A90.8,90.8,0,0,1,484.9,367a118.25,118.25,0,0,0-20-1.1,69.27,69.27,0,0,0-9.26.62l-12.37,1.72c-9.35.6-17.18,2.16-26.58,3.13-9.47.79-20.31,1.92-38.06-2.37a93.66,93.66,0,0,1-21.23-6.77,77,77,0,0,1-11.08-6.06l-2.76-1.76c-.89-.56-2.18-1.65-3.24-2.49-2.22-1.82-4.41-3.74-6.53-5.76l-2.39-2.43c-.32-.35-.88-.93-1-1.08l-.4-.53-1.46-2.07-1.31-2-.62-1-.08-.13,0-.06-2-2.72,0,0,0-.07-.29-.52-.57-1.05a97,97,0,0,1-8.18-20.22,66,66,0,0,0,8.11,10.45,74.39,74.39,0,0,0,4.41,7.64l.58.9,2.17,2.87.7.88,1.4,1.75,1.4,1.75.78,1,1.77,1.84c2.39,2.44,4.95,4.83,7.66,7.13a43.9,43.9,0,0,0,4.56,3.66l4.31,3.07a69.36,69.36,0,0,0,8.69,5.11l4.41,2.26,4.31,1.77a88.46,88.46,0,0,0,8.75,3.18,60.8,60.8,0,0,0,10.32-1.56c6.77,1.88,18.72,3.5,23.77.05,2.32.07,4.45,0,6.68,0,8.08.49,21,.63,26.5-3.45l5.26-.37c1.28.13,2.86.17,3.87.33l3.16.43c2.06.35,4.14.72,6.27,1.2a45.4,45.4,0,0,0,8.08-.49c2.28-.19,5.25-.22,12.18,1.64A173.15,173.15,0,0,1,509.74,372.19Z"/><path class="cls-5" d="M331.52,230a3.22,3.22,0,0,1-.81-3.06,20.24,20.24,0,0,1,2-5.43c1.38-2.75,3.83-5.59,6.33-8.9A30.74,30.74,0,0,1,343.5,208c1.66-1.48,3.34-3,5.17-4.44a107.43,107.43,0,0,1,11.51-7.6l5.69-3.18,5-2.44a60.47,60.47,0,0,1,11.57-7.18c4.31-2,9-4,13.15-5.54,8.39-3.22,15.12-5.46,15.32-8,12.64-3.43,12.69-1.72,20.8-.43A46.39,46.39,0,0,1,439,172a252.62,252.62,0,0,0-44.78,12.83c-3.74,1.27-7.47,2.55-11.35,4.13L379,190.56c-1.48.8-3.21,1.75-5.09,2.86s-4,2.23-6.14,3.67c-3,1.69-6.1,3.41-9,5.29s-5.77,4-8.45,6.21-5.43,4.47-7.61,7.22l-3.42,4c-.5.72-1.25,1.25-1.76,2l-1.61,2.08Z"/><path class="cls-5" d="M450.31,162.17a9.58,9.58,0,0,1-3.5-2.75.75.75,0,0,1,.34-1.12c.52-.31,1.36-.57,3.86-.8A37.48,37.48,0,0,1,461.57,154c2-.36,4.25-.6,6.36-.85l3.39-.34,3.15-.25A46.16,46.16,0,0,1,489,158.72c4,2.47,8.46,5.24,15.89,9.12,2.78-1.15,5.66-2.45,8.46-3.49.27,3.19,8.12,5.94,15.82,8.63s15.48,5.51,15.38,7.32l-.92,1.71c5.18,4.19,13.15,10.13,17.4,13.79l-3.12,4.68c-11.93-5.24-6,1.33-3.57,5.53a64.88,64.88,0,0,1-3.18,11.57,20.13,20.13,0,0,1-4.68,1.07,267.65,267.65,0,0,0-25.66-12.35,45.81,45.81,0,0,0-3.43-8.57c-.27-1.07-1.19-2.33-1.46-3.4-2.58-2.57-5.18-5.15-7.88-7.63l3.2-7.87c.6-1.57,1.54-3.48-6.74-10.08-9.8-.86-19.47-1.55-30.71-1.59a83.44,83.44,0,0,0-10.19-3A118.09,118.09,0,0,0,450.31,162.17Z"/><path class="cls-5" d="M522.84,250.52c3.7-1.36,7.34-1.8,11.43.76,8.33,5.81,6.42,8.2,4.66,10.37-5.12-.74-12.84-5.23-17.38-8.55Z"/><path class="cls-8" d="M68.85,172.25c-.29,3.31-2.13,9.47-4.26,14.69s-4.14,9.66-5.68,9.22c1.93-8.69-5.4-4.41,1.16-17.62C63.06,176.45,66,174.38,68.85,172.25Z"/><path class="cls-8" d="M43.42,244.69c1,1.46.61,4.3-.19,7.32a78.58,78.58,0,0,1-2.61,8.41c-1.28,4.74-2.87,9.78-4.07,15l-3.77,15.55c-1.95-3.31-2.09-9.41-1.39-16.57s2.81-15.25,4.51-22.71C38.42,249.08,41.16,246.58,43.42,244.69Z"/><path class="cls-8" d="M434.88,356l13.38-.6c2.24-.1,4.07-.09,6.16-.13,1.83.07,3.47,0,5.29.21,9.55,1.06,14.43-1.4,18.17-2.86-3.74,1.46-8.62,3.92-18.17,2.86-1.82-.2-3.46-.14-5.29-.21-2.09,0-3.92,0-6.16.13Z"/><path class="cls-8" d="M428,359.11c-7.6.82-17.39-.28-25.48,3.64a126.05,126.05,0,0,1-16-.37,95.35,95.35,0,0,1-30-10c-2.16-1.52-4.29-3.08-6.35-4.66l-1.56-1.22-1.79-1.65q-1.77-1.67-3.44-3.39t-3.22-3.47l-1.52-1.75-.6-1-2.24-3.68-1-.8-.25-.21-.13-.11-1.71-2.24-.73-.94c-1-1.29-2-2.68-2.92-4.14a60.54,60.54,0,0,1-5.15-10.54c-3-7.81-4.53-16.84-5.24-24.7a89.39,89.39,0,0,1,8-32c1.27,1.92,3.39,1.07,8.17-4.19-.73,1.38-1.07,2.16-1.77,3.6-4.12,9.14-8.2,20.35-8.4,34.37a60.57,60.57,0,0,0,3.6,21.29,64.71,64.71,0,0,0,4.44,9.77l2.71,4.35.7,1.07,1.47,1.94.12.15.25.29,1,1.18,2.71,3.3.33.4.66.67,1.43,1.4,2.9,2.69a59.25,59.25,0,0,0,5.79,4.7q2.58,1.65,5.13,3.14a71,71,0,0,0,19.6,7.56c12.38,2.78,23.09,2.67,34.05,2.23,5.72.55,11.3.56,16.71.68Z"/><path class="cls-8" d="M439,172l0,3.67c-9.33,2.3-17.71,4.65-26.88,7.87-9.13,3.46-11.64,1.33-17.88,1.29A252.62,252.62,0,0,1,439,172Z"/><path class="cls-6" d="M172.1,31C168.77,37.17,162,42.74,155,49.18c-3.54,3.15-7.46,6.16-11,9.44s-6.87,6.72-9.86,10a24.84,24.84,0,0,0-6.49-2.7c7.2-6.52,14.06-13,21.68-18.65,3.73-2.88,7.38-5.79,11.12-8.57Z"/><path class="cls-6" d="M8.65,369.13c.43,3.14,1.61,3.9,2.06,6.24s.11,6.17-1.5,16.8c-.56-2.52-1.07-5.26-1.54-8l-1-7.72Z"/><path class="cls-6" d="M56.9,452.12a79.44,79.44,0,0,0,19.26,17.29l3-2.11a69.33,69.33,0,0,0,6.41,6.83L89,477.32l3.65,3a77.64,77.64,0,0,0,8.12,4.38c2.48,3,5.58,6.34,8.36,9.1,6.43,2.74,13.4,5.58,21.12,8.46,7.73,2.7,16,5.51,25.49,5.78a32.5,32.5,0,0,0,7.15-.6,22.92,22.92,0,0,0,6.12-2.23,19.33,19.33,0,0,0,7.94-8.9c3.08-7,2.69-13.82,1.7-19.18a20.33,20.33,0,0,0-1.58-7.45c-1.22-3.17-3.14-6.67-5.38-11.26-.55-1.07-1.16-2.57-1.75-3.88L167.73,449l-2.21-5-1.12-2.55c0-.36-.73-1-1.24-1.57l-1.61-1.74L155,431c-1.16-1.5-2.09-1.62-3.12-2.24l-3.06-1.62a94.65,94.65,0,0,0-9.25-4.44l-5.76-2.58A72.1,72.1,0,0,0,123,416.27l-2-.56L119.44,414l1.55.28c2.23.43,4.48.88,6.57,1.45s4.12,1.27,6.68,2.12c2.4.83,5.65,1.77,10.4,3.7l9.84,4.65c.39.07.87.64,1.33,1.13l1.39,1.47,2.79,2.94,5.62,5.91,2.8,3,.93,2.18,1.89,4.4,1.83,4.3.85,2.47a87.68,87.68,0,0,0,3.19,8.24c2,4.52,4.23,8.42,6.31,13l1.76,1.9c-1.16-4.16-2.66-7.81-4.15-14.5l-1.42-6.72-.4-1.93-1.32-3.68-2.79-7.66c.15-2.09-4.64-6.29-7.64-9.73l-10-10.72a4.7,4.7,0,0,0-2.31-1.62l-2.2-1-4.4-2-4.39-2a26.43,26.43,0,0,0-3.67-1.54c-8-2.44-12-3.27-15.53-4.08a98.93,98.93,0,0,0-10-1.32l-.83-.06.91,1c-10.34-1.16-17.85-2.49-26.24-2.18a34,34,0,0,0-3.88,1.51,11.32,11.32,0,0,0-4.52,3.59c-4.27,2.1-9,5.62-11.53,9.94-1.76,10.13.12,25.29,3.76,35l.12,1.93c.76,8.47,2.87,16.25,4.68,22.91a25.13,25.13,0,0,0-3-2.87c-1-4-2.12-7.38-3.2-10.55l-3-8.55c-.56-1.28-1.32-3.34-1.94-4.94a41.1,41.1,0,0,1-1.56-4.7,14.21,14.21,0,0,1,.48-9.26c-.74-6.69-1-13.62,1.28-20.07a30,30,0,0,1,9.14-12.17c3.81-2.81,7.37-3.14,10.62-3.5,6.27-1.12,11.67-1.38,19.28-2.63l3.79.17a104.64,104.64,0,0,1,11.87,1.42l3.35.74,4.14,1,2.17.55,3.21,1,3.18,1,1.58.48a9.7,9.7,0,0,1,2,.74l9,3.66,4.47,1.82,2.23.91a4.39,4.39,0,0,1,2.34,1.54L179,439a7.69,7.69,0,0,1,.59.65l.18.47.36.94.72,1.9,1.44,3.82,2.91,7.79.72,1.94.21,1,.42,2,.84,4.1.06,1.18v4.95c0,1.35,0,3,.1,4,.12,2.45.33,4.41.48,6.45a21.07,21.07,0,0,1,1.37,9.31,29.22,29.22,0,0,1-4.86,14.27,41.83,41.83,0,0,0,.75-12,55.57,55.57,0,0,1-6.58,15.88c-2.47,3.77-4.75,6.49-8.7,8.1a24.8,24.8,0,0,1-5.16,1.72,42.1,42.1,0,0,1-6.64.84,55.9,55.9,0,0,1-12.32-1c-7.35-1.38-13.32-3.39-18.35-4.52-4.63-1.82-9-3.81-13.15-5.84s-8.12-4.19-12.24-6.45c-4.1-2.09-8.06-4.88-12-7.32-3.89-2.86-7.86-5.44-11.55-8.8A90.13,90.13,0,0,1,59.72,463,77.72,77.72,0,0,1,56.9,452.12Z"/><path class="cls-6" d="M105.24,531.81a89.7,89.7,0,0,0,14.5,17.46l-.8.55a131.2,131.2,0,0,0,15.91,13.61l1.29-1.17a185,185,0,0,0,15.59,11.55,176.08,176.08,0,0,0,29.55,16.79c2.8.8,6.06,1.53,8.44,2.09a47.34,47.34,0,0,1,7.4,2.25l13.82,6.18c-5.86-1-9.31-1-13.73-1.58a67.61,67.61,0,0,1-7.63-1.43l-2.39-.62-3.36-1.06a76.75,76.75,0,0,1-7.75-3,186.11,186.11,0,0,1-32.7-19.8l-2.86-2.07a169.64,169.64,0,0,1-24.63-19.66,108.64,108.64,0,0,1-13.33-18.94c-2.34-5.94-4.31-11.36-6.54-17.41C99.15,521.21,102,526.27,105.24,531.81Z"/><path class="cls-6" d="M135.48,597.22c3.94.36,10.13,2.74,15.9,4.4a177.71,177.71,0,0,0,16.77,10.24c-5.42-2.58-6.48-2.38-8.84-2.38-2.18-.08-5.76-.25-14.81-4.52C141.43,602.4,138.34,599.88,135.48,597.22Z"/><path class="cls-6" d="M331.94,610.2a470.57,470.57,0,0,0,52.49-7.37,322.58,322.58,0,0,0,67.82-18.94c6.12-3,9.15-6.81,17.25-9.72,5.11-1.95,9.38-4.06,14.13-6,16.09-9.35,31.75-18.88,47.34-30.46,9-5.67,17.92-11.77,26.15-19.38a205.17,205.17,0,0,1-24.43,22.83c-4.2,2.81-7.62,5.29-10.84,7.52s-6.19,4.53-9.49,6.73c-6.59,4.55-14.47,9.26-27.79,15.29-4.23,2.54-7.85,4.9-12.29,7.3s-8.49,4.78-12.85,6.82c-13.51,6.94-23.21,10.37-36.74,15.48a302.92,302.92,0,0,1-38.12,7.15c-11.13,4.15-26.24,3.51-33.93,3.33l-18.74.38Z"/><path class="cls-6" d="M496.29,593.7c1.78-.68,3.67-1.26,5.51-2,5.41-4.08,10.34-8.06,15.78-12.55l6-3.39c9.7-3.44,18.77-6.65,37.16-17.42a21.43,21.43,0,0,1-1.45,5.55c-2.86,2.14-5.83,4.16-8.8,6.09s-6,4-8.74,5.64c-8,5-16,9.58-23.78,13.78-7.56,3-9.5,7-16.84,10-6,.88-11.71,2-18.81,3.19C487.86,599.35,491.78,596.62,496.29,593.7Z"/><path class="cls-10" d="M557,543.83l5.87-4.78a9.57,9.57,0,0,0,.5.83c7.53-5.89,11.48-10.21,15-14.9,3.55-4.49,6.68-9.33,12.3-17.16,1.89-2.84,4.25-6.66,6.27-9.52,1.84-3,3.42-5.08,4.14-4,10-17.74,8.95-26.67,9.05-37.33.84-4.26,1.82-9,2.19-12.93s.67-8,.73-12a149.87,149.87,0,0,0-1.55-23.83,170.69,170.69,0,0,0-13.7-46.39c-3.69-7.61-7.33-12.48-10.45-15.38s-5.56-4.14-7.38-4.19c-3.6-.17-5,3.07-7.7,3.22a97.55,97.55,0,0,1-9-9.89,54.24,54.24,0,0,0-7.36-8.19,135.46,135.46,0,0,0-24.5-9.8c-2.51,0-5,.18-8.07.14-7.41-2.36-16.47-5.78-20.13-2.09-4.63-1.15-8.65-2-13.37-2.88-2.52,1.13-5,2.2-7.43,3.4a97.05,97.05,0,0,0-19.78-2.54,76,76,0,0,0-10.57.54c-3.27.45-6.5,1-9.49,1.75-5.7.62-11.79,1.52-17.74,2-4.94-1.57-9.49-1.37-14.66-.69s-11,1.88-17.87,1.38a29.74,29.74,0,0,1-5-1.44c-.8-1.3-1.48-2.46-2.06-3.64l-1.41-3.79c-1.92-.57-3.22-1.66-4.85-2.42-.94-.42-1-.76-1.58-1.07s-.89-.32-1.7-1.08l-4.21-4.68a13.72,13.72,0,0,1-1.37-2,10.72,10.72,0,0,1-1.11-2,20.25,20.25,0,0,1-4-11,59.43,59.43,0,0,1,4.09-14.27l-2.27-1.45c1-3.39,2.61-7.28,3.92-10.81,1.42-2.23,2.78-4.32,4.1-6.21a41,41,0,0,1,11.72-11.37c3.63-5.59,9.58-11.29,15.39-16.46,2.36-.88,5.33-1.9,8.34-2.78,2.62,4.15,6.07,3,9,2.22,5.22-2.48,2-4.22,2.34-6.28,2.27-2.16,8.43-4.39,6.08-2.15,2.71,2,7.2,5,18.11,3.26,2.74-.67,5.65-1.32,8.54-1.89a36.92,36.92,0,0,1,4.19-.67,35.1,35.1,0,0,1,4.13-.4c10.47,2.4,15.24,3.49,20.08,4.33,6.63,1.21,13.82,2.93,20.39,4.66l-2.07,5.19c-4.3-.55-8-.85-12.37-1a85,85,0,0,1-1.33,12.84l-.31.91c-2.79-.67-5-1.07-7.73-1.61l-2.74-.53-6.34-1.29c-2-.29-4.13-.72-5.92-.92a44,44,0,0,0-4.81-.41,18,18,0,0,0-2.2,0l-3.14.24c-1.64.17-3.31.38-5.55.69-5,.72-10.65,1.63-15.58,2.71-3.74,1.79-5.67,4.15-10.37,5.23-3.12.84-6.19,1.76-9.55,2.94a63.67,63.67,0,0,0-7,1.22c-2.41.43-4.59,1.21-6.55,1.56-3.93,2.17-8.74,5-11.42,9.76-.56,1-1,1.65-1.68,3.07a37.55,37.55,0,0,0-1.86,4.05c2.15-.29,4.56-.44,6.75-.67,1-1.42,1.44-1.82,2-2.59a26.6,26.6,0,0,1,8.35-6.48,40.94,40.94,0,0,1-3.72,5.29c-1.12,1.75-1.63,3.38-.47,4.26a.23.23,0,0,0,.1.11l-2.6,4.43c-1,1.83-2,3.67-2.81,5.33A49.09,49.09,0,0,0,389,287.8c0,.42-.08.89-.05,1.22a5,5,0,0,1,.14.81,1.4,1.4,0,0,1,.28.36s.19,0,.16,0q-.75,0-1.54.06c-3.24.16-2.72.82,1.1-1.12.43-.23.69-.42,1.5-.83.47-.26.34-.18.41-.21l.09,0,.07,0h0l-2-2.6,0,0,.09.09.17.17,1.4,1.4,2.88,2.89c.73.87.34,0,.32-.2a4.14,4.14,0,0,0-.39-.9,3.84,3.84,0,0,0-.59-.77l-.36-.32.21-.05a1.32,1.32,0,0,1,.65,0c.11.08.75,0,1,.07a3,3,0,0,1,.54.13c.21,0,.59,0,.88.08-1.74-.58-2.11-1.08-2.09-1.49l-.06-.24c0-.06.6.13.83.19.61.2,1.23.32,1.2,1a6.92,6.92,0,0,1,.16,1.29c.05.37-.1,0-.21-.26l-.31-.69L394.38,285l1.53,3.33c.09.15.3.74.28.51l0-.49a6.89,6.89,0,0,0-.15-.94,11,11,0,0,0-1-2.47,18.21,18.21,0,0,0,1.94-2.8,3.55,3.55,0,0,0,.27-.53l-.13.15.1.26a5.31,5.31,0,0,1,.16.81l2.49-6c.67-.19,1.82.13,4,.1a10.78,10.78,0,0,0,.81,3,77.37,77.37,0,0,1,16.27,2.28c5,1,9.45,1.51,17.65-1l.05-1c3.92-.29,8.07-.66,13.84-.89a151.87,151.87,0,0,1,17.49.3,241,241,0,0,1,30.72,2.58,28,28,0,0,0,5.51-3.55c17.76,4.14,34,9,52.34,17.82l3.09,3.59,3.06,3.75,6.31,8.09c-6.15-2.18-14.41-6.78-22-10.13a55.15,55.15,0,0,0-10-3.56c-2.78-.64-4.82-.59-5.64.55,4.72,2.73,8.65,5.28,13.37,8.44,1.86.72,3.9,1.75,5.91,2.73s4,2,6.09,3.07c4,1.95,8,4.09,11.83,5.28a102.78,102.78,0,0,1,25.83,25.34,127.48,127.48,0,0,1,14.26,25.91c6.94,16.91,10.25,33,11.61,50.42a184.25,184.25,0,0,1-.33,23.8l-.22,3-.42,3.3-1,6.64a94.46,94.46,0,0,1-2.82,13.09c-1.88,7.21-5.15,14-8.16,20.72a150.61,150.61,0,0,1-20.31,33,175.81,175.81,0,0,1-17.81,15.73c-1.77,1.66-3.57,3.24-5.36,4.65-4.86,3.68-5.91,7.14-20.9,14.44a23.07,23.07,0,0,0,5.65-5.68C551.86,550.72,553.35,548.59,557,543.83Z"/><path class="cls-6" d="M572.11,540.68A183.89,183.89,0,0,0,589,523.48a150.61,150.61,0,0,0,20.31-33c3.18-3.32,6.13-7,9.17-10.71a86.32,86.32,0,0,0-1-10,94.46,94.46,0,0,0,2.82-13.09l1-6.64.42-3.3.22-3a184.25,184.25,0,0,0,.33-23.8c1.68-3.92,3.42-7.08,4.66-11.26a127.6,127.6,0,0,1,2,16.34,173.43,173.43,0,0,1-.57,24.61c-.55,4.64-1.15,9.3-1.9,14q-1.59,7.09-3.47,14.29c-.25,1-1,2.79-1.32,3.73a147.6,147.6,0,0,1-24.34,44.93,93.33,93.33,0,0,1-6.88,7.1c-2.3,2.18-4.55,4.45-6.82,6.44-4.55,3.77-9,7.78-13.55,10.92C570.83,547.67,571.56,544.37,572.11,540.68Z"/><path class="cls-6" d="M585.83,475.14,589,468l2.23-7c1.58-4.53,2.12-8.93,2.87-13.07a102.32,102.32,0,0,0,1-21.53,95.26,95.26,0,0,0-7-32,95.26,95.26,0,0,1,7,32,102.32,102.32,0,0,1-1,21.53c-.75,4.15-1.29,8.55-2.87,13.07L589,468Z"/><path class="cls-7" d="M533.3,298.76c.83-1.15,2.87-1.2,5.64-.55a55.15,55.15,0,0,1,10,3.56c7.6,3.35,15.86,7.95,22,10.13l-6.31-8.09-3.06-3.75-3.09-3.59a113.87,113.87,0,0,1,22.86,12.71,49.78,49.78,0,0,1,7.58,8.85c-1.32.86-2.48,1.61-3.91,2.62,9.53,9.52,14.92,15.91,19,20.56,4.09,4.83,7.35,9,10,16.39a138.44,138.44,0,0,1,8.83,25.88,162.29,162.29,0,0,1,4.05,25.18c-1.23,4.18-3,7.34-4.66,11.26-1.36-17.38-4.66-33.51-11.61-50.42a127.48,127.48,0,0,0-14.26-25.91,102.78,102.78,0,0,0-25.83-25.34c-3.82-1.19-7.84-3.33-11.83-5.28-2.07-1.1-4.1-2.12-6.09-3.07s-4-2-5.91-2.73C542,304,538,301.48,533.3,298.76Z"/><path class="cls-6" d="M614,357.6c-2.62-7.39-5.88-11.56-10-16.39-4.07-4.65-9.46-11-19-20.56,1.42-1,2.59-1.76,3.91-2.62a108.17,108.17,0,0,1,8.79,9.15c2.86,3.18,5.46,6.87,7.78,10.06A135.82,135.82,0,0,1,616.64,357Z"/><path class="cls-6" d="M553.87,345.94c-6.44-5.33-13.67-9.2-20.34-12.55l.91-1.48a72.14,72.14,0,0,1,9.17,3.09,51.84,51.84,0,0,1,6.19,3.61c1.22.89,2.64,2,4.23,3.24s3.07,2.86,4.8,4.59A13.14,13.14,0,0,0,553.87,345.94Z"/><path class="cls-6" d="M507.52,337.61a218.75,218.75,0,0,0-22.43-9.91l-2.52-.45a198.08,198.08,0,0,0-22-1.19c-2.17,1.45-4.26,3.05-6.88,4.67-8.78,1.11-15.82,3.38-23.67,5.08s-16.52,3.17-28.31,1.94c.59,1.05-.41,1.45-2.22,1.5a66.56,66.56,0,0,1-7-.86c-5.09-1.06-10-2.22-8.37.89-2.51-.4-5-1-7.52-1.55s-4.93-1.76-7.37-2.74a62.44,62.44,0,0,1-7-4c-2.26-1.35-4.62-3.72-6.79-5.68l-1.62-1.57-1-1.27L350.94,320l-1-1.27-.48-.64-.6-.8,0-.06-.06-.11-.13-.22-.26-.44-2-3.55a45.59,45.59,0,0,1-4.56-15.94,47.34,47.34,0,0,1,1.25-15.84,75.91,75.91,0,0,1,4.8-13.86c1.89-4.36,4-8.44,6.17-12.5l6.73-12.47c1.11-2.18,2.55-4.17,3.83-6.33,5.24-6.41,15.1-11.42,19.76-15.41-2.68-.18-6.66,1.68-10.14,3.2C370.9,225.5,368,227,367,226.22l-1.49-2.47c2.07-1.71,4.09-3.43,6.18-5l6.52-4.39c4.48-2.65,8.4-4.79,12.79-6.84a57.81,57.81,0,0,1,9.9-.75c-.27,2.29-1.13,5.06-1.32,7.36a174.8,174.8,0,0,0-19.8,16.19,82.31,82.31,0,0,0-13.13,16.32L363,252.56a99.63,99.63,0,0,0-7.75,20.59,95.39,95.39,0,0,1,11.32-17.66l4.19,3.38c-1.3,3.53-2.9,7.42-3.92,10.81a58.32,58.32,0,0,0-5.32,14.72c-1.1,4.93-1.55,9.22-.54,13.93a27.9,27.9,0,0,0,4.45,7.19l.16.2h0l-.42-.56h0l0,0,.06.06.11.12.45.46.91.92,1.8,1.83c.59.58,1.21,1.28,1.77,1.75l1.51.9c1.06.59,1.7,1.28,3,1.87s2.43,1.22,3.64,1.88a66.41,66.41,0,0,0,8.5,3l.4-.87a29.74,29.74,0,0,0,5,1.44c9.83,2.4,20.94,2.71,32.32,2.18,6-.61,12.14-1.51,17.82-2.14,3.78-.08,8.23-.07,12.39.2a127.28,127.28,0,0,1,23.25.42c2.08-.07,4.14,0,6.87.07,5.79,1.33,12.19,2.93,17.83,4.72l-1,2.52a179.44,179.44,0,0,1,16.87,8C514.68,335.37,511.34,336.6,507.52,337.61Z"/><path class="cls-7" d="M396.14,288c-.28,0-.66,0-.88-.08a3,3,0,0,0-.54-.13c-.3-.08-.93,0-1-.07a1.32,1.32,0,0,0-.65,0l-.21.05.36.32a3.84,3.84,0,0,1,.59.77,4.14,4.14,0,0,1,.39.9c0,.19.41,1.07-.32.2L391,287.13l-1.4-1.4-.17-.17-.09-.09,0,0,2,2.6h0l-.07,0-.09,0c-.07,0,.06,0-.41.21-.81.41-1.07.6-1.5.83-3.82,1.94-4.33,1.28-1.1,1.12q.79-.07,1.54-.06s-.13,0-.16,0a1.4,1.4,0,0,0-.28-.36A5,5,0,0,0,389,289c0-.33.06-.8.05-1.22a49.09,49.09,0,0,1,3.36-8.41c.77-1.66,1.82-3.5,2.81-5.33l2.6-4.43a.23.23,0,0,1-.1-.11c-1.16-.88-.65-2.51.47-4.26a40.94,40.94,0,0,0,3.72-5.29,26.6,26.6,0,0,0-8.35,6.48c-.59.77-1.05,1.17-2,2.59-2.19.23-4.6.39-6.75.67a37.55,37.55,0,0,1,1.86-4.05c.71-1.42,1.12-2.09,1.68-3.07,2.68-4.73,7.49-7.59,11.42-9.76,2-.34,4.13-1.13,6.55-1.56a63.67,63.67,0,0,1,7-1.22c3.36-1.19,6.43-2.1,9.55-2.94,4.7-1.08,6.63-3.45,10.37-5.23,4.93-1.07,10.57-2,15.58-2.71-1.62,1.94-3.2,4.16-4.72,6.32,2.46-.4,5.05-.79,7.7-1.13l4-.47,1.92-.19c.53,0,.85-.1,1.26-.09h1.23l-.08,2.68-.06,5.54c1.1,4.69,2.74,5.7,1.87,7.32a5.78,5.78,0,0,0-1.64.95c-.28.11-.27.28-.87.47l-2.15.66c-2.43-1.28-5-2.47-7.68-3.64-10.85,1.54-22.18,3.53-27.42,8.84l1.05,4.47a81.94,81.94,0,0,0-9.3,3.58c-1.28.6-1.52.64-2,.9a9.37,9.37,0,0,0-1.25.77,11,11,0,0,0-1,2.11,2.33,2.33,0,0,1-.13.42c0,.05-.15.35-.44.89-.53,1-1.22,2.15-1.65,3.09a57.71,57.71,0,0,0-2.45,5.36,21.6,21.6,0,0,0-.26,4.15.19.19,0,0,1,0,.07c-1.14-.24-2.5-.49-3.28-.71a43.47,43.47,0,0,0-5.74-.92,26.13,26.13,0,0,0-4.26-.39,26.63,26.63,0,0,0-3,0c-3.81.17-3.13.91.91-1.2l.62-.37,1-.54q1-.56,1.91-1.19l.89-.64.11-.08.05,0,0,0h0c.76,3.46-1-4.72-.84-3.87l.1.22.2.45.82,1.78,1.64,3.56.2.45.1.22v-.13l0-.6a6.84,6.84,0,0,0-.23-1.16,6.6,6.6,0,0,0-.53-1.3c-.18-.41-.71-.7,0-1.23a17.66,17.66,0,0,0,1.85-2.84c.21-.61,1.55-2.68,2.29-4.31l.3-.64c0-.09,0,0,0,0l0,0s-.11.09.07.09l-2.49,6a5.31,5.31,0,0,0-.16-.81l-.1-.26.13-.15a3.55,3.55,0,0,1-.27.53,18.21,18.21,0,0,1-1.94,2.8,11,11,0,0,1,1,2.47,6.89,6.89,0,0,1,.15.94l0,.49c0,.23-.19-.36-.28-.51L394.38,285l1.28,2.78.31.69c.11.24.27.63.21.26a6.92,6.92,0,0,0-.16-1.29c0-.63-.59-.76-1.2-1-.23-.07-.81-.26-.83-.19l.06.24C394,287,394.4,287.46,396.14,288Z"/><path class="cls-6" d="M423.06,270.92,422,266.45c5.24-5.31,16.57-7.3,27.42-8.84,2.64,1.16,5.25,2.35,7.68,3.64-5.31,1.15-11.48,2.69-16.79,4.34C438,267.71,428.28,269,423.06,270.92Z"/><path class="cls-6" d="M448.7,239.17c2.24-.31,3.91-.52,5.55-.69l3.14-.24a18,18,0,0,1,2.2,0,44,44,0,0,1,4.81.41c1.79.2,4,.63,5.92.92l6.34,1.29c-3.14.29-6.36.47-9.23,1a27.25,27.25,0,0,0-4.14.75,14.46,14.46,0,0,0-3.24,1h-1.23c-.4,0-.72.05-1.26.09l-1.92.19-4,.47c-2.65.33-5.24.73-7.7,1.13C445.5,243.33,447.08,241.1,448.7,239.17Z"/><path class="cls-6" d="M459.91,251.85l.06-5.54c.78.18,1.65.48,2.71.81l3.47,1,7.82,2.4a15.57,15.57,0,0,1-3.22,2.39c-1.86.91-3.48,2-5.13,3a11.58,11.58,0,0,0-3.84,3.28C462.66,257.55,461,256.54,459.91,251.85Z"/><path class="cls-6" d="M487.44,242.13c16.47,2.78,27.71,3.75,35.4,8.4l-1.29,2.58a49.64,49.64,0,0,0-6.82,1.44A278.06,278.06,0,0,0,487.13,243Z"/><path class="cls-9" d="M134.12,68.66,130,73.87c-1.31,1.76-2.51,3.57-3.76,5.33l-7.56,10.67c-2.28,2.51-4.24,5.24-6.28,7.91l-2.58-2.62c2.73-6.78,5.75-12.69,9-19.46,2.72-3.14,5.83-6.85,8.89-9.75A24.84,24.84,0,0,1,134.12,68.66Z"/><path class="cls-9" d="M170,515.78c4-1.62,6.23-4.33,8.7-8.1a55.57,55.57,0,0,0,6.58-15.88,41.83,41.83,0,0,1-.75,12C182,508.51,176.89,514,170,515.78Z"/><path class="cls-9" d="M351.65,225.91a112.34,112.34,0,0,1,19-18.77c6.39-5.18,10.68-8.64,13.68-11.75l-1.45-6.45c3.88-1.58,7.61-2.86,11.35-4.13,6.24,0,8.75,2.18,17.88-1.29,9.17-3.21,17.55-5.57,26.88-7.87,1.43,1.35,2.13,2.8,3.53,4.15,7,4.75-2.94,6.47-13.45,8.73s-22.3,5.35-19,8.75c5.39-1.68,10.75-3.24,16.15-4.53-3.2,3.15,5.57,2.42,6.3,4.28a28.19,28.19,0,0,1-2.55,2.4,234.51,234.51,0,0,0-25.69,6.29l-3.3,1a57.81,57.81,0,0,0-9.9.75c-3.13-2-8.39-1-14.68,1.92A90.86,90.86,0,0,0,359,221.09,26.93,26.93,0,0,0,351.65,225.91Z"/><path class="cls-9" d="M460.05,243.63a14.46,14.46,0,0,1,3.24-1,27.25,27.25,0,0,1,4.14-.75c2.86-.5,6.09-.68,9.23-1l2.74.53c-2,2.91-3.57,6.1-5.42,9.12l-7.82-2.4-3.47-1c-1.06-.34-1.94-.63-2.71-.81Z"/><path class="cls-9" d="M495,184.45l.25-.73c4.09.91,8.89,1.91,12.9,3,2.7,2.48,5.3,5.06,7.88,7.63-7.21-2.05-15.14-4-22.59-5.5Z"/><path class="cls-7" d="M609.28,490.45c3-6.73,6.29-13.5,8.16-20.72a86.32,86.32,0,0,1,1,10C615.41,483.47,612.46,487.13,609.28,490.45Z"/><path class="cls-7" d="M500.62,282.19a241,241,0,0,0-30.72-2.58,151.87,151.87,0,0,0-17.49-.3c-5.76.23-9.92.59-13.84.89l-.05,1c-8.2,2.56-12.69,2-17.65,1a77.37,77.37,0,0,0-16.27-2.28,10.78,10.78,0,0,1-.81-3c4.17-.14,9.16-.7,14.39-1.41a165.5,165.5,0,0,1,17.5-1.39l7.1-.55,4.16-.27,4.53-.24a165.5,165.5,0,0,1,20,.36,243.37,243.37,0,0,1,34.66,5.25A28,28,0,0,1,500.62,282.19Z"/><path class="cls-7" d="M437.45,305.22c-6.22.52-11.85.81-16.92,1a68.77,68.77,0,0,1-9.64-3.69c-6-.88-10.78-1.46-14.4-2.18a69.62,69.62,0,0,1-8.76-1.89,13,13,0,0,0-1.47-.61l-.78-.25s0,0,0,0a1.84,1.84,0,0,1-.32.35c.08.37-.69-.66-1.06-1.06l-1.36-1.62c-1.53-1.43-1.67-3.17-.83-4l1.88-.38c.07.07.09.15.24.22a1.28,1.28,0,0,0,.32.32,3.3,3.3,0,0,0,.5.53l.13.17.06.09h0l-1.59-2.11h0l0,0,.09.1.17.19,1.38,1.55,2.77,3.09a4.15,4.15,0,0,0,.32.34l0-.12,0-.23a1.05,1.05,0,0,0,0-.39.66.66,0,0,0-.17-.28l-.13-.09.31.08a6.53,6.53,0,0,1,1.18.46c.53.35,1.77.42,2.55.87,1,.32,2.36.61,3.65,1.05a82.85,82.85,0,0,0,11,1.77c8.71.94,19.79.69,31.1.08Z"/><path class="cls-7" d="M386.9,318a66.41,66.41,0,0,1-8.5-3c-1.2-.66-2.41-1.28-3.64-1.88s-1.9-1.28-3-1.87l-1.51-.9c-.56-.47-1.18-1.17-1.77-1.75l-1.8-1.83-.91-.92-.45-.46-.11-.12-.06-.06,0,0h0l.42.56h0l-.16-.2a27.9,27.9,0,0,1-4.45-7.19c-1-4.71-.56-9,.54-13.93a58.32,58.32,0,0,1,5.32-14.72l2.27,1.45A59.43,59.43,0,0,0,365,285.39a20.25,20.25,0,0,0,4,11,10.72,10.72,0,0,0,1.11,2,13.72,13.72,0,0,0,1.37,2l4.21,4.68c.81.76,1.17.66,1.7,1.08s.64.65,1.58,1.07c1.63.76,2.93,1.85,4.85,2.42l1.41,3.79c.59,1.18,1.26,2.34,2.06,3.64Z"/><path class="cls-7" d="M355.23,273.15c1.17-12.36,4.43-16.94,7.75-20.59l3.67-5.95a82.31,82.31,0,0,1,13.13-16.32,174.8,174.8,0,0,1,19.8-16.19A198.13,198.13,0,0,1,424,209c1.35.7,2.07,1.53,3.4,2.22l.37,4.61c2.35-2.24-3.81,0-6.08,2.15-.37,2.06,2.88,3.8-2.34,6.28-3,.78-6.43,1.93-9-2.22-3,.88-6,1.9-8.34,2.78-5.81,5.18-11.76,10.87-15.39,16.46a41,41,0,0,0-11.72,11.37c-1.32,1.89-2.68,4-4.1,6.21l-4.19-3.38A95.39,95.39,0,0,0,355.23,273.15Z"/><path class="cls-7" d="M455.06,202.46c2.2-.06,4.42-.22,7.31-.12a186.6,186.6,0,0,1,24.06-3.57l3.28.63c10.52,1.92,20.85,4.17,31.16,6.89a267.65,267.65,0,0,1,25.66,12.35l-.9,1.49c1.36,2.27,2.52,4.46,3.56,6.6s1.92,4.41,2.75,6.56a173.77,173.77,0,0,0-20.24,0c1.35,1.36,2.77,2.53,4.17,3.7,2.75,1.2,5.53,2.39,8.17,3.68,5.19,3.88,5.23,6.07,4.32,7.62s-2.91,2.63-3.3,4.42c-3.2-.53-7.18-1.09-10.79-1.38-4.09-2.55-7.72-2.12-11.43-.76-7.69-4.65-18.93-5.62-35.4-8.4a85,85,0,0,0,1.33-12.84c4.35.17,8.07.47,12.37,1l2.07-5.19c-6.57-1.73-13.76-3.45-20.39-4.66-4.84-.84-9.61-1.92-20.08-4.33l.14-.95c-.29-1.93-1.29-3.71-1.66-5.65a61.35,61.35,0,0,0-9.73-2.13A40.3,40.3,0,0,0,455.06,202.46Z"/><path class="cls-7" d="M493.89,176.84c5.87.58,11.63,1.27,17.42,2l-3.2,7.87c-4-1.07-8.8-2.06-12.9-3A22.57,22.57,0,0,0,493.89,176.84Z"/><path class="cls-10" d="M378.83,629.77c10.95-3.41,21.92-7.11,32.69-11.5l3.45-.81c2.1.1,4.2.19,6.35.47l.57,5.37c-13.26,3.31-26.51,5.78-39.63,7.75A13.23,13.23,0,0,1,378.83,629.77Z"/><path class="cls-10" d="M400.9,206.74l3.3-1a234.51,234.51,0,0,1,25.69-6.29c.72,1,2.1,2.15,2.8,3.19-2.54,2-5.65,4.2-8.7,6.39a198.13,198.13,0,0,0-24.41,5.09C399.77,211.8,400.63,209,400.9,206.74Z"/><path class="cls-10" d="M471.75,190c2.89.34,5.13.55,7.16.91l9,3.47-1.45,4.39a186.6,186.6,0,0,0-24.06,3.57c-2.89-.11-5.11.06-7.31.12l.07-1a55.23,55.23,0,0,0-6.64-7.59c1.78-.56,3.25-1,5.47-1.54l6.35-1.15C464.43,190.67,468.42,190.25,471.75,190Z"/><path class="cls-8" d="M334.79,251.64c1.07-3,2.18-6.08,3.38-8.91,1.26-3.06,2.27-5.31,3.93-8.6-2.58.06-4.68-.87-7.1-1,1.07-1.71,2.87-4.4,4.42-6.63l1.9-2.57a28.86,28.86,0,0,0,2.09-2.42c1.38-1.62,2.66-3.33,4.11-4.88a90,90,0,0,1,9.65-8.34c6-5.66,4.76-6.31,10.56-11.2,2.16-1.45,4.35-2.61,6.14-3.67s3.61-2.06,5.09-2.86l3.87-1.62,1.45,6.45c-3,3.11-7.29,6.57-13.68,11.75a112.34,112.34,0,0,0-19,18.77,26.93,26.93,0,0,1,7.34-4.81,89.66,89.66,0,0,1,17.46-12c6.47-4.19,10.1-5,12.3-4.8a2.32,2.32,0,0,1,2.26,3.17c-4.39,2.05-8.31,4.2-12.79,6.84l-6.52,4.39c-2.09,1.59-4.12,3.31-6.18,5l1.49,2.47a71.23,71.23,0,0,0-5.52,5.74c-1.51,2.11-3.16,4.11-4.68,6.41l-.4.68a123.11,123.11,0,0,1-7,10.92l-6.32,8.28a55.19,55.19,0,0,0-6.3,10.5,47.57,47.57,0,0,0-4.31,18.61c-1.21,2.06-1.72-.4-1.94-3.56s.19-6.61-.3-6.83A108.14,108.14,0,0,1,337,253.24Z"/><path class="cls-4" d="M335,233.13,331.52,230l4.33-6.17,1.61-2.08c.51-.71,1.26-1.24,1.76-2l3.42-4c2.18-2.75,5.05-4.85,7.61-7.22s5.6-4.2,8.45-6.21,6-3.6,9-5.29c-5.81,4.89-4.56,5.54-10.56,11.2a90,90,0,0,0-9.65,8.34c-1.45,1.55-2.73,3.26-4.11,4.88a28.86,28.86,0,0,1-2.09,2.42l-1.9,2.57C337.87,228.73,336.07,231.41,335,233.13Z"/><path class="cls-5" d="M133,463.87a133.76,133.76,0,0,0,13.44,6c-1.87-.8-2.51-.16-3.95-.24S138.74,468.67,133,463.87Z"/><path class="cls-5" d="M315.4,312.2a64.84,64.84,0,0,1-5-22.67A80.33,80.33,0,0,1,313.33,265a99.85,99.85,0,0,1,8.18-19.91,107.64,107.64,0,0,1,10-15.08l3.48,3.09a166.66,166.66,0,0,0-10.84,18.41A100.47,100.47,0,0,0,315.4,276,74.23,74.23,0,0,0,315.4,312.2Z"/><path class="cls-8" d="M485.61,346.43c-12.89.53-18.94.15-24.86-.08-3.83-4-.54-5.61,5.54-5.32A52.52,52.52,0,0,1,485.61,346.43Z"/><path class="cls-8" d="M57.07,404.92l1.37,12.43C55.62,414,51.79,414,50,403.63c-1.19-6.05-1.21-10.4-1.57-15.57,2,.09,2.51,3.73,3.52,7.68S54.43,403.93,57.07,404.92Z"/><path class="cls-6" d="M210.95,601.11c5.48,1.89,8.79.87,13.57,1.23,4.88,1.78,9.93,3.3,15,4.88a225.4,225.4,0,0,0,23.07,1.32c2.6,1,4.55,1.88,6.57,2.59,3-.21,6.16-.27,9.59-.4s6.14-.2,9.37-.2c6.25,0,12.78,0,18.85-.29,6.32.59,12.68,1,18.44,1.24-5.17.24-8.53,2.11-12.47,3.17-7.08.24-14.27.35-21.45.46l-10.72.09c-4.15,0-8.44-.16-12.43-.49-5.71-.64-11.93-.9-29.16-6.59C232,606.55,227.56,608.16,210.95,601.11Z"/></g></g></g></g></g></g></svg>